<?xml version="1.0" encoding="utf-8"?>
<!-- Generator: Adobe Illustrator 18.1.0, SVG Export Plug-In . SVG Version: 6.00 Build 0)  -->
<svg version="1.1" id="Layer_1" xmlns="http://www.w3.org/2000/svg" xmlns:xlink="http://www.w3.org/1999/xlink" x="0px" y="0px"
	 viewBox="0 0 1600 600" enable-background="new 0 0 1600 600" xml:space="preserve">
<metadata><?xpacket begin="﻿" id="W5M0MpCehiHzreSzNTczkc9d"?>
<x:xmpmeta xmlns:x="adobe:ns:meta/" x:xmptk="Adobe XMP Core 5.6-c014 79.156821, 2014/08/29-03:07:50        ">
   <rdf:RDF xmlns:rdf="http://www.w3.org/1999/02/22-rdf-syntax-ns#">
      <rdf:Description rdf:about=""
            xmlns:xmpMM="http://ns.adobe.com/xap/1.0/mm/"
            xmlns:stRef="http://ns.adobe.com/xap/1.0/sType/ResourceRef#"
            xmlns:stEvt="http://ns.adobe.com/xap/1.0/sType/ResourceEvent#"
            xmlns:xmp="http://ns.adobe.com/xap/1.0/"
            xmlns:xmpGImg="http://ns.adobe.com/xap/1.0/g/img/"
            xmlns:pdf="http://ns.adobe.com/pdf/1.3/"
            xmlns:dc="http://purl.org/dc/elements/1.1/"
            xmlns:xmpTPg="http://ns.adobe.com/xap/1.0/t/pg/"
            xmlns:stDim="http://ns.adobe.com/xap/1.0/sType/Dimensions#"
            xmlns:xmpG="http://ns.adobe.com/xap/1.0/g/">
         <xmpMM:RenditionClass>proof:pdf</xmpMM:RenditionClass>
         <xmpMM:DocumentID>xmp.did:160f1ebe-1629-43ba-9253-8c5ae5c3ccc2</xmpMM:DocumentID>
         <xmpMM:InstanceID>xmp.iid:160f1ebe-1629-43ba-9253-8c5ae5c3ccc2</xmpMM:InstanceID>
         <xmpMM:OriginalDocumentID>uuid:1a1fada4-5118-3f43-97e6-8309a97ccdad</xmpMM:OriginalDocumentID>
         <xmpMM:DerivedFrom rdf:parseType="Resource">
            <stRef:instanceID>uuid:b6807887-fb05-564e-8356-18148a71d514</stRef:instanceID>
            <stRef:documentID>uuid:1a1fada4-5118-3f43-97e6-8309a97ccdad</stRef:documentID>
            <stRef:originalDocumentID>uuid:1a1fada4-5118-3f43-97e6-8309a97ccdad</stRef:originalDocumentID>
            <stRef:renditionClass>proof:pdf</stRef:renditionClass>
         </xmpMM:DerivedFrom>
         <xmpMM:History>
            <rdf:Seq>
               <rdf:li rdf:parseType="Resource">
                  <stEvt:action>saved</stEvt:action>
                  <stEvt:instanceID>xmp.iid:160f1ebe-1629-43ba-9253-8c5ae5c3ccc2</stEvt:instanceID>
                  <stEvt:when>2015-12-03T11:21:08-05:00</stEvt:when>
                  <stEvt:softwareAgent>Adobe Illustrator CC 2014 (Macintosh)</stEvt:softwareAgent>
                  <stEvt:changed>/</stEvt:changed>
               </rdf:li>
            </rdf:Seq>
         </xmpMM:History>
         <xmp:CreateDate>2015-12-03T11:21:08-05:00</xmp:CreateDate>
         <xmp:CreatorTool>Adobe Illustrator CC 2014 (Macintosh)</xmp:CreatorTool>
         <xmp:ModifyDate>2015-12-03T11:21:08-05:00</xmp:ModifyDate>
         <xmp:MetadataDate>2015-12-03T11:21:08-05:00</xmp:MetadataDate>
         <xmp:Thumbnails>
            <rdf:Alt>
               <rdf:li rdf:parseType="Resource">
                  <xmpGImg:width>256</xmpGImg:width>
                  <xmpGImg:height>104</xmpGImg:height>
                  <xmpGImg:format>JPEG</xmpGImg:format>
                  <xmpGImg:image>/9j/4AAQSkZJRgABAgEASABIAAD/7QAsUGhvdG9zaG9wIDMuMAA4QklNA+0AAAAAABAASAAAAAEA&#xA;AQBIAAAAAQAB/+4ADkFkb2JlAGTAAAAAAf/bAIQABgQEBAUEBgUFBgkGBQYJCwgGBggLDAoKCwoK&#xA;DBAMDAwMDAwQDA4PEA8ODBMTFBQTExwbGxscHx8fHx8fHx8fHwEHBwcNDA0YEBAYGhURFRofHx8f&#xA;Hx8fHx8fHx8fHx8fHx8fHx8fHx8fHx8fHx8fHx8fHx8fHx8fHx8fHx8fHx8f/8AAEQgAaAEAAwER&#xA;AAIRAQMRAf/EAaIAAAAHAQEBAQEAAAAAAAAAAAQFAwIGAQAHCAkKCwEAAgIDAQEBAQEAAAAAAAAA&#xA;AQACAwQFBgcICQoLEAACAQMDAgQCBgcDBAIGAnMBAgMRBAAFIRIxQVEGE2EicYEUMpGhBxWxQiPB&#xA;UtHhMxZi8CRygvElQzRTkqKyY3PCNUQnk6OzNhdUZHTD0uIIJoMJChgZhJRFRqS0VtNVKBry4/PE&#xA;1OT0ZXWFlaW1xdXl9WZ2hpamtsbW5vY3R1dnd4eXp7fH1+f3OEhYaHiImKi4yNjo+Ck5SVlpeYmZ&#xA;qbnJ2en5KjpKWmp6ipqqusra6voRAAICAQIDBQUEBQYECAMDbQEAAhEDBCESMUEFURNhIgZxgZEy&#xA;obHwFMHR4SNCFVJicvEzJDRDghaSUyWiY7LCB3PSNeJEgxdUkwgJChgZJjZFGidkdFU38qOzwygp&#xA;0+PzhJSktMTU5PRldYWVpbXF1eX1RlZmdoaWprbG1ub2R1dnd4eXp7fH1+f3OEhYaHiImKi4yNjo&#xA;+DlJWWl5iZmpucnZ6fkqOkpaanqKmqq6ytrq+v/aAAwDAQACEQMRAD8A9U4q7FXYq7FXYq7FXYq7&#xA;FXYq7FXYq7FXYqsmlEUZcitKAKOpJNAPpJwgWgmlP6qsnxXNJSf2DvGPkp2PzO+Hi7kcN83fULHt&#xA;BGp7MqhSPcEUIOPEV4B3OUtDIsbsWjeojdtyCBXiT326E/TjzXkr5Fk7FXYq7FXYq7FXYq7FXYq7&#xA;FXYq7FXYq7FXYq7FXYq7FXYq7FXYq7FXYq7FXYq7FXYq7FVC5/vrX/jKf+TT5IdWMuYedP5g/OOb&#xA;TriKXQYra7kWQW89vwPDjE7AkPcN8Rk4KNqfa7UOZ4xacEerb8eTrfG1JiRw0fx5qUPmf84mv7gW&#xA;2hQXCrKY5UmBhRQqIUMZMppzDFm3cA/DXCcOnoXL8fj3IGfU2aiD+Pf+tkWgXnnS4lu31+AQQelD&#xA;JZRrCkQ9ZJ5BxPGe5YFwsexY9e24yjLHGK4Pxt7g5GKWU3xjur5+8+TL8xHNdirsVdirsVdirsVd&#xA;irsVdirsVdirsVdirsVdirsVQGv61Z6Ho15q94GNtZRNLKsY5OQvZQSBUnbc5PFjM5CI5lry5Rji&#xA;ZHkHk5/5yb0Gppot0R2/eR5tP5Il/ODqP5bh/NLX/Qzehf8AVluv+RkeP8kS/nBf5bh/NLv+hm9C&#xA;/wCrLdf8jI8f5Il/OC/y3D+aXf8AQzehf9WW6/5GR4/yRL+cF/luH80u/wChm9C/6st1/wAjI8f5&#xA;Il/OC/y3D+aXf9DN6F/1Zbr/AJGR4/yRL+cF/luH80u/6Gb0L/qy3X/IyPH+SJfzgv8ALcP5pd/0&#xA;M3oX/Vluv+RkeP8AJEv5wX+W4fzS7/oZvQv+rLdf8jI8f5Il/OC/y3D+aXf9DN6F/wBWW6/5GR4/&#xA;yRL+cF/luH80rJP+cltBkKf7h7pCjhg/qRmnY7bdVJGEdky/nBB7agf4S9d0PXNL1zTIdS0ydbi0&#xA;nFUdT0PdWHZh3GarJjlA1Lm7jFljkjxRNhHZBsee/mF+b/lzyrewadIj6heBhJc29uyj0wu6B2PQ&#xA;lqGn9cz9LoZ5BfIOt1naMMREeZYz/wBDN6F/1Zbr/kZHmR/JEv5wcb+W4fzS7/oZvQv+rLdf8jI8&#xA;f5Il/OC/y3D+aXf9DN6F/wBWW6/5GR4/yRL+cF/luH80u/6Gb0L/AKst1/yMjx/kiX84L/LcP5pd&#xA;/wBDN6F/1Zbr/kZHj/JEv5wX+W4fzS7/AKGb0L/qy3X/ACMjx/kiX84L/LcP5pd/0M3oX/Vluv8A&#xA;kZHj/JEv5wX+W4fzS7/oZvQv+rLdf8jI8f5Il/OC/wAtw/ml3/Qzehf9WW6/5GR4/wAkS/nBf5bh&#xA;/NLv+hm9C/6st1/yMjx/kiX84L/LcP5pRWm/85JeW7u/gtp9MuraOZ1jM/KNwnI05FRQ0HemRn2V&#xA;MCwQyh21AkAgh69mqdy7FXYq7FXYq7FWJ/mx/wCS51//AJhT/wASGZWi/vo+9w9f/cS9zxz8pfOW&#xA;t/oHzDYloWt9D0W7vNODQRFkmjq6szFavu3Rs22twR4on+dIAul7P1M+CQ6RgSNkyt7rRPNHkPRb&#xA;zzeJpLjVNc+qq9gsUB9Rk9FWf4eIREXcKKk/TlZEseWQx9IdW0ShlwxOXnKdbbeSHtPyZ8o2P1uX&#xA;XtTZLZtSlsLJzdW1pwiQ7SOZhSST/IUe+GWvyGuEfw3yJYx7NxxvjO3FQ3A+/qxTyVoOh2v5t22j&#xA;XjLqtjDeNHbTRMhilZDyid/tKy7fEv0ZlajJI4DIek04mmxQGpET6hb0W70PS/Oeo29tdy3Cabc+&#xA;YbyzNsotoyn1PTnIKvHCrfbh2qT8PX4t8wI5JYgSKvgB69Ze92UsUc8gDfCchHTpH3MZ8veQ/wAs&#xA;dZmvmtLi9ZLa4jsra2ubiC1eZ6n1ZYpGQo5IoUj2O2/UZkZdTmgBYHK+RP497i4dJgmTROxrcgX+&#xA;O5vWvL/lPRvy3121k067+v2Wrm2S4n9ETiRoy8BZkDfuhGV5KrfEdx1xx5ZzzRNijH+1cmHHDBIU&#xA;bEq6X5fBjnlby55ObyNeeZvMCX0ptdQSzWGyeNOSvGG+LmrUpUmv0ZkZsuTxBCFbi93GwYcXhHJO&#xA;9pVszE/kr5V0661a71TUZDpFtNBDYpJcW9m9J41lJmlmHCqh6KAByIzE/lCcgBEerrsS5n8mY4mR&#xA;kfSKrcD52l1z+Xv5c6Lputanql9d6lY2GoRWtlJp0sLGZJoFkVGJBTkpY8iD2ywarNMxjEAEje/e&#xA;1y0mCEZSkTICVCq7lXVfyl8sf4aludGnuLy+t4LeWS5WeBgkkpAkFxaMscsKAGo3Y+PTIw1s+OpU&#xA;Bv3/AGHqnJ2fj8O4kk0Oo+0cwiv8O2HluTzLp/lXVtVsNf8ALdmt5eXTvH9UugEWR19IAU2YcKk/&#xA;TkfFOThMxExma8wz8EYuOOOUhOAs9xZP50v7p4PNWj2PmHV01Ly/ZR3jyM1ukTK6BzHWKKOQ1Vut&#xA;R19sx9PEXCRjGpGurlamZqcROXFAX0/U8p8m+XPLGoeVfMPmTzEbyVdIltfgtJEV5PrEhQgmRW6s&#xA;RU+Fc2efLOM4whXqvn5Op02HHLHOc79NcvNk+t/lX5JQ+YdN0qe+/SukWkWoRT3DxfVyk3xLEVCB&#xA;tkI+Lx+W+Nj1mT0mVcMjXm5WXQYvXGJlxRF+S7zN+UfknSrC9tY9Y465pscUjLNdWxNwWCtIgtRS&#xA;aP4T8Ffxxw67JIg8PpPkdvjyXP2figCOL1x8xv8ADm3rf5cflxaSeZILVtSafyv9VuLwtJEUlhmI&#xA;aSKOiAhuFRyP7Xtgx6rMeEnh9dpy6LAOMDi9FXyT/wA0aNof17zTBpMT6dJF5fjkuEjW3EMnMfux&#xA;QxkrtXmykE+OU4ckqgZb+vzcjPjhcxHb0eX6mK6t+WPlCGfXfL1nPfDzF5f039Jz3spi+qTcI0ke&#xA;NUChlFJQFJb9WZMNXkIjM1wSlXm4mTQ4wZQBPHCPFfRF63+V/kSBdc0+yfUF1fStH/TKyyPE0FFT&#xA;kYqBQxrT8fbIY9ZlPCTXDKXCzy6HCOKI4uKMOLya8wfk95P0vS72yOsrF5jsbQXK+td2wWeTjyaN&#xA;bWgnUEbIe5OOLXZJSB4fQT3H7+S5uzsUIkcXrAvmN/hzTKy8r+UfLb+ddAslvLjWbDy7cPeXlx6Z&#xA;t5DJAslYlVeSEF1pU+PWlchLNkycEzXCZj382yODHi8SAsyGM2enJi35XJox8i+e5NYillsY49PM&#xA;otuAmp6stAjOGC1alT4Zk6zi8XHw89/0OJoRHwsnFy9PL4pld/lJ5du4buHQpLp9RvNKtdb0K2nd&#xA;OfpSvSeGVVUcmUU4kePtvXHWzFcVUJGJbZdnwIIhfEYiUf0hhnnTRNF0Lzx+h9IkkmhsXghuJpWD&#xA;FrgUMpWgWgDHjT2zL0+SU8fFLq4WpxRx5eGPSvm+ws5R7N2KuxV2KuxV2KpF550W61vyhqulWrIl&#xA;zd27JE0honLqORFaDbLtPkEMgkehcfVYjPHKI5kPnPSPIf5jaRHfR6dcWECalbPZ3o+uWL84JRR0&#xA;+Nm418Voc389ThlVg7G+Rebx6TPC+Ex9Qo7x5K0Pk78zoNNstNiu7BbLTroX1nF9bsDwuBvz5FuT&#xA;fJiR7YDnwkk0bIrkeSRps4iI3GgbG8eabWcH51Wk13NHqdgz3s31mb1LnTnUT0A9WNWJWN6D9kDK&#xA;pHTmtjt5SbojVAk3HffnHmkVn5C/Mez1tdcgurIaqkpuBdPfWUjGViSzkO7KSSe4y6WpwmPCQeH3&#xA;Fx46TPGfGCOL+sE0sdH/ADgsZY5bXUbCN4rubUIz9Z05qXNzG0UsnxE/aRyOPQdhlcsmnlzB5Vyl&#xA;yDbHHqY8jHmTzjzKzQNA/NXQoriGwudN+r3MouJYJ7nT54/WU1WVVkZgrinUfwGHLlwTqxLbykuL&#xA;DqMdgGNHziV50b83WtNWtJb+wmg1tjJqKyXWntzdlClgS1UPEADjSmDxMFg0fTy2kvh6mpC4+rnv&#xA;FMPLOl+fPLnlG50jTVsEvp75Lv6xJeWEsRiWMIY2jkZqnkoYHIZp4smQSN1VcpNuDHmx4zGPDfFf&#xA;OKFtLL85rbUb/UF1OxluNSKteia70+WN2jFEPpuzIvAAceIGSlLTkAUdvKTCMdUJGVi5c94pfqPl&#xA;T81NStLu0vr6yuIL66F9dK97Y1e4CcA/INyAC7BQePtk4ZsESCAdhXItc9PqJAgkGzfOPNML2w/O&#xA;K90qTTLi/wBOaGaJILiYXOnrcSxR/YSScMJGA+f8chGWnEuIA/KTZKGplHhJj84382tVsPzk1TSn&#xA;0u91KxktZlRLhhd6eksyR/YWWVWEjge5374wlp4y4gDfukuSGpnHhJjXvihrjQPzbubzVbya/sHu&#xA;dchW21ST61pw9WJUCBaAgJ8KgVShyQy4AAKPp5bSYHFqSZEmNy2O8UBaeQ/zGtNHv9Gt7iwTTdTM&#xA;TX0H1yxPqGBucfxFi68W3+EjJy1OEyEiDY5bFhHSZxExBjwy57xR82g/m3NPqE8t/YNLqtstnft9&#xA;a04epAi8VTY/DQDqtDkBkwAAUfSbG0mZxakkm4+oUd48kTqFh+cuoaYNNu9SsZLciNZW+taeJZVi&#xA;IMYllDCRwpHc7965GMtPGVgH5SZzhqpR4SY174oS48ufmxcS6vLNfWDSa6qR6q31rTx6yxiijY/B&#xA;T/IpkhlwCtj6eW0mBw6g8RJj6+e8UZe2X5y3tq9rc6jp7xy2hsJj9Z07nJbmnwM9eXb7Va5GMtOD&#xA;YB53ylzZyjqpCiY8q5x5NX1h+ct9pD6Tc6lYvayxiGZhd2CzSRL0jkmVhIy/Nt++MZacS4gDfuks&#xA;oaqUeEkV74/eoT6J+b091e3cuoWDXGo2Z028f61pw52pHH06A0Xb9paN75IZMAAFHY3ylzYnFqSS&#xA;bjZFHePJVvdM/OK90Y6Pc6jYyWbRLBKfrdgJniQ1WN5g3qso92+eCM9OJcQBv3STKGplHhJFe+P3&#xA;80RcR/nZcabLp02p2D289s1nck3GmmSWBlKcZJCS7HiSA1a+9ciDpgbo875SZEaox4SY1Vc4pZ5b&#xA;8sfmn5bS7j0e70+3ivvTF5G11p8qyCLlxVhKX2+Nq0613yzLmwZK4gdvKTVhwajFfCYi+e8WS+W4&#xA;fOtp5kuPNOvLb6nraQCDTRHqVjBbohV1ZJI1bdPiBAXvU9cx8pxmAhGxHr6TblYRlEzknUpVt6og&#xA;MOtvyt833uupd6jdWEXr3PrXd297bPQs/N3Ko5Yn5ZlnWYxGgDy7i4UdDklO5GPPvD6b/T+hf9XK&#xA;1/5HR/8ANWc54Uu4vU+LDvHzd+n9C/6uVr/yOj/5qx8KXcV8WHePm79P6F/1crX/AJHR/wDNWPhS&#xA;7iviw7x818WtaNLIscV/bySOaIiyoWJPYAHE45DoUjLE9QjMgzdirFPzWd0/LrX2Rip+qsKg0NCQ&#xA;D94zK0X97H3uJrz+4l7nzNoP5YeeNe0+HUdK036xZXBcRTetAgJjPFhR5FINfEb50OTWY4GpHf4v&#xA;LYtDlyR4oix7wt0r8s/O+qRyyWemErDO9owllhgJnjNHjQSuhZloa8cM9XjjzPmuPRZZ8h1roN1T&#xA;S/yr8+6pai6stKZ4WeWIF5YYz6kDFJEKu6sGDAihGCesxRNEpx6DNMWI/d0UtT/LXzvpiWLXmlSJ&#xA;+kZRb2iq0cjNMwqI2VGYo9B0an4HDDV45XR5MZ6LLGrjzQ3mTyP5p8tpDJrNibeK4JWKVZI5ULr9&#xA;pC0TOAw8DvksWohk+ksc2lyYvqFWmVp+XOs6po2h3Wi2k91e6pFezSRu1ukZSzmWImEmTmacxyDg&#xA;Gv2a5XLVRjKQkaArv6tsdHKcYmAJMr7uh6bpV5m8meZfLElumt2ZtDdqXt25xyK4WgajRs61WoqM&#xA;tw6iGS+E3TTn008VcYq2Uad+X3lmL9BR69qd1bS+YLaGeyNvCkiGSeQoIzVqjiCtSfH2zGlqZni4&#xA;QDwndy4aTGOHjJHGBXxTOX8qvKdx5iv/AC5pOq3t1q+n29zNNC8KKpkhVTGitXfmz0ysa2YgJyAE&#xA;SQ2nQYzMwjImQB6MSuvyw89Wur2mkS6U/wBfvYzNbIkkToyL9pvVVzGoWu/Jv15kx1mIxMr2Dhy0&#xA;OUSETHcpZ5i8ra95duo7XWLQ20sqepCeSSI6VpyR4yyN9By3FmjkFxNtWbBPGakKZpr35QSWnlTy&#xA;3rWl3Ml3ca39TSe2ZQPSe+jDR0478edVqfbMPHrrnKMhXDf2Odl7OrHCUTZlX2rvO/5NXuk69YaP&#xA;5eeXVri6tpbmUv6cQjWJgrMzMyoqivVm67Y6fXiUTKfporquzTCYjD1Ei2Pj8q/Pjam2mx6WZLoQ&#xA;C7UJNAUeAsEEiSc+DCp7GuX/AJzFV3ty6uP+QzcXDw71fTklXmTypr/lq8Sz1q0NrPKgli+JJFdC&#xA;SOSvGzqenjluLNHILibac2nniNSFMlv/AMpvMct96GhWM9ykVpa3V2bmS1jZPrfPgRxlIKH0zvWo&#xA;p8VMxo62AFyNbnv6fByp9nzJqAJ2B3rr8WNan5T1/S9dTQtQtfq2qSNGkcLvGFJlICH1OXp8ST9r&#xA;lQd8yIZoyjxA7OLPTzhPgkKk9Bl/Ie9hvtTsVvDd3Fvp63mn+mIk9aYmhidTI/AAkfESAcwR2kCA&#xA;arei7E9lEEi7IjY/FsQb8sfPKa5+hG0txqPofWinqRemIKkeoZufpBain2uu3XMv83i4eK9uTh/k&#xA;cvHwcPqq/h7+ST695f1nQNRbTtXtWtLxVD+mxVgVboyshZWB8VOW48sZi4mw05cMscuGQosx1z8n&#xA;fMC69cab5bhk1WO1gtJrmRmhiZGvA3AUdkqKodx075iY9dDhufpu/sc3L2dPjMYeqgO7qlQ/Knz+&#xA;1lNerpLtBB6nICSL1GEJ4yNHFz9R1B7qpr2y387iurafyGar4W7L8qPP97psepWuktLZzQC6hkE0&#xA;FXiYVBVDJzJp+zSvtuMEtbiBonf4rHQZpR4hHar6O/LHyVaecPMb6VdXT2kSW0lx6sYVjVGUU+La&#xA;nxY6vUHFDiAvddDphmnwk1syjy5+SX1/WPMllqN5JawaJN6FtKqrynYq0q7H/ioKx+eY+XtDhjEg&#xA;XxfY5eHszilMSNcP2/gMRsPy087X+kpq1rppezkjaaGssKySRJ9p0hZxIyj2XftmVLV44y4Sd3Dh&#xA;osso8QG3w+5b/wAq485nRP01+jj+j/q/13l6sPqfVuvrejz9XhTevHpvj+ax8XDe918Ufk8vDxVt&#xA;V9OXfXNNfNf5WappbGfTFe60y30+3vr69naKFI2nB/dhnZAx22Vasa9Mrw6yMtpbGyA3ajQyhvHe&#xA;IiCT70l856HY+XtfFjpt49wI4YJmlYBJI5ZEEhQ8ejJUfLLdPkOSNkNGpxDHOom+T7MZlVSzEKo3&#xA;JOwGck9sSpfXIe3Nh2ZY3YH5EAg5LhLDjDF/zSdZvy48wekeZFq3IDqKEE1HUUHWuZGjFZo+9xdc&#xA;bwSrueA6V590i08veTdOf1xLoWr/AKQv+KjiYvW5/AeXxNxJ2NM3k9NIzmf50aDz+PVxEMcd/RKz&#xA;82WWH5q+QIbz9ICO4t7pdVuL2VjZw3Ms0M0jMgjeV/8AR6K1H4bn6a5iy0eUiunCBzr+1y4a/CDx&#xA;bg8RPIG/1JXN+aXl1tX0O5X6z9X0/WtS1O5XgBWG8naSLiOW7hX38MtGjnwyG28Yj5NR10OKJ3oT&#xA;kfmVLRfzW0fSk9X0Z7iZfNFxrPplVobO4tngNCWP70epUDp74cmilL/lWI/G7Rj18YdCf3hl8CK+&#xA;aC/MXz/our6FHo+kTTTxPeG+mMlpa2kSfAVVVWFeTyfEeTk/f2npdNKMuKXdXMlr1mrjOHDG+d8g&#xA;PuRvlP8AM7y/pGh6DZzC5Fzplhq9rM0aKR6t/OksBQ8hsAnxHtkM2knKUjtRMfsG7Zp9dCEIg3cY&#xA;zHzOzF9e80adf+QPLGhRCQ3+jveG6Z1HDjcTF4wjVJPw9dsyceExyzl0lTiZc8ZYYQ6xv7SkOgXs&#xA;NhrunX09TDa3UM8oUVbjHIrNQbb0GXZY8USB1Dj4pCMwT0IZvB+YGixefvM/mBROtrq1ndwWRCj1&#xA;BJOiiMsOWwqvjmGdNI4ow6xIc8auIzTnvUgaTfyz+bPl/StK8u2FxFPItnp+o6fqTiKN+H1yWKSN&#xA;41kJWQD0aMrbfPKs2inKUiOpiR8LbsHaEIRgDe0ZA/Gv1MZ/Mrzlp+vjSrLTpJZ7TSo5VFxLBBaq&#xA;zzMpb0oYFARAEFORr/HI0mAwsnnL3n73F1upGThEeUfID7AzHQPzo0DTHs45ree4s7bQbCzMTIp/&#xA;3JaezsjLVtkPqfb67DbMXLoJSujvxk/Aubi7ShGrBIEIj/Oih7b80PKV3Lpr6us0lxDo0tjPcywL&#xA;cRreSMGMjQFwsyddm+7CdHkF8P8AOvn09/RhHXYyRxfzK5Xv7uqprf5s+WLm0uIbM3XqPoE+kI5t&#xA;4oAZpHUhvTibgiFQdl6Y49FMEXX18XNOXtDGQQL+gx5Uwjzt5p07WtI8sWloJfV0jTltLoyKAPUW&#xA;n2CCajbMzT4TCUyf4jbg6nPGcYAfwxplHmb8ztA1DQtdsrMXKXGpadpNlAWRVHOxmkefkQxopSSg&#xA;8cxsOjlGUSa2lI/Pk5efXQlCQF3KMR8juxf8yfNGm+Y9YsbywEgit9Pt7ST1VCt6kXLlShbbfMnS&#xA;YTjiQe8lxNbnjlkCOkQGZ61+Z/k+7Gt3Vt9dW71nRV00xPEgRJkWi/EHPwmpqcw8ejyDhBqoytzc&#xA;muxHiIu5QpV0v83fLUMNjYTJOtudAtdKurowRT+nc21fi9GQlZYzyNa/dgnoZmyP55PwLLH2hjFA&#xA;3XAI8uo8uoYR+ZPm2z8yavaSWTTSWdhax2kUs8cMLNwJJKxQKqIlWoq77fdmZpMBxxN8yb/FuBrd&#xA;QMshXICun6GWeYvzT8vX9n5qitPrKSa1Y6ba2hKBfitTJ6wch9lKvQda5jYtHOJhdekyPzczNroS&#xA;E6v1CI+XNdpH5meT4bjQPMV2L1dc8u6Z+jItMiRPq05WN40k9TkOC0f4hx8KVpuJ6TIRKArhlK76&#xA;rj1uMGMzfHCNV0Klpf5o6DbeYPJV/KLgW+g6fLa6iiIu8kkLJ+7XlQryK+GGejkYTG3qNhGPXQE8&#xA;Z3qEaPyYr+W3mjTfLmsX15fiQxXGn3FpH6Shm9SXjxrUrttmVq8JyRAHeC4mizxxSJPWJD0D/leO&#xA;jTSaC08M6GGGaTXXRFJmvWs/qsbr8Q5DrUntTwzA/k6Q4q+Huu3Y/wAqRPDd9eL31Sl5V/M/yHpG&#xA;l6SvCeC4t7BrO9hS0hlkeZlo0v1p39QRk9I1/Vks2jyykffY3/QjBrsMIx52I0dh9/d5IOD8yvKD&#xA;eTlsNQ+sajPFpn1G3sLq1gd4bjjxEkV6pR1iH8pUt75I6TJ4lih6ruzy93e1jW4/C4ZXL01RA5/1&#xA;u5f5q/NTyr5k8vS+XryK4S0hsrZ9MuljHqJfwKyuHXnRo3BAr2326Y4dHPHPjFXZv3Jz6/HlhwG6&#xA;oV/WH6HkSqzMFUEsTQAbkk5tHTvuWICYiZ91rWFe1B0b5nqPb6c407bPdjfdXyLNRubcSo3HisvE&#xA;qrsOQ37MNuS+IyUTTGUb9755v9c812smqGTQtKaLSZvRv5xp9uVRmfglTT9o9M6SGDEeH1S9XL1F&#xA;4rJrNTEyuMKgaPpCU/8AKwtQ/wCrVpH/AHD7f/mnLvyMO+X+mLjfyvl7of6UM/g13TZ/L2j3y+X9&#xA;JS5vYpHuD9UjK8o5nh+EU2r6dc4rt3tDLpc3hwka5729PpMscuGMzCNny7jSuZZwtyX8taYn1QK1&#xA;yr2MaMgf7NVah3zVfyxrd/6PPnt9rk8Ef5sfkst7s3EM88Pl7SXitlDTsLOL4Qdgd8jDtrVyBIO0&#xA;efP9aiET/DH5BD/pq0/6sekf9IUeQ/l/U9/3/rRUf5sfkrm9As1vT5f0kWrOYll+pxULgVIp16ZP&#xA;+W9Xw8V+m66/rTwxq+GPyCh+mrT/AKsekf8ASFHkP5f1Pf8Af+tFR/mx+Tv01af9WPSP+kKPH+X9&#xA;T3/f+taj/Nj8nfpq0/6sekf9IUeP8v6nv+/9a1H+bH5O/TVp/wBWPSP+kKPH+X9T3/f+taj/ADY/&#xA;JE2NxJfOyWflzS5mReT8bGPYeJOWYu2dZkNR3+f60iETyjH5Ib9NWn/Vj0j/AKQo8r/l/U9/3/rR&#xA;Uf5sfk79NWn/AFY9I/6Qo8f5f1Pf9/61qP8ANj8nfpq0/wCrHpH/AEhR4/y/qe/7/wBa1H+bH5O/&#xA;TVp/1Y9I/wCkKPH+X9T3/f8ArWo/zY/J36atP+rHpH/SFHj/AC/qe/7/ANa1H+bH5IiO7MlnLeJ5&#xA;e0k20LBZZPqcVAW6CnXJjtrVmJkD6R7/ANaeCNXwx+QQ/wCmrT/qx6R/0hR5D+X9T3/f+tFR/mx+&#xA;Tv01af8AVj0j/pCjx/l/U9/3/rWo/wA2Pyd+mrT/AKsekf8ASFHj/L+p7/v/AFrUf5sfkiJLsx2c&#xA;V4/l7SRbTMVik+pxUJXqKdcme2tWIiRPpPv/AFp4I1fDH5BD/pq0/wCrHpH/AEhR5D+X9T3/AH/r&#xA;RUf5sfk79NWn/Vj0j/pCjx/l/U9/3/rWo/zY/JELdlrJ71fL2km1jcRvL9TioGO4FOuTHbWrMeK/&#xA;T8f1p4I1fDH5BHeVrnSdS1qGxutB0sxTh/iS0iVgVQvXcH+XMjQ9tZ8mUQkdj7/1sscIE0Yx+TO/&#xA;8IeU/wDqy2H/AEiw/wDNOb3x5/zj83I/L4/5sfkHf4Q8p/8AVlsP+kWH/mnHx5/zj81/L4/5sfkF&#xA;SDyx5at5knt9Js4ZozWOWO3iVlPiGCgjAc0zsSfmkYIA2Ij5L5baW60JraGZreaa29OK4QkNG7R0&#xA;VwR3U74iVTs77oMTLHQNEhicXk7zu91zu/MTyW8ioZ4Y5HQcyQ0qp8Oy8uXE1+yabUGZZ1GKto7u&#xA;ANHnv1ZNvxf47k88laJq2i6MLHUrsXbxlBCQzuEjSJI+IZwG3dGenatB0yjU5YzlcRTlaLBPHDhk&#xA;b/sH9rz7WbPSru888SyWkVyY9R0mOrlFb4poklVZWA9MNupNfnmzxSlEYhdemf3GtnRZ4QlLOSAf&#xA;Xj+8Xv0QP5n6Bp8XlqW+ttNg0z6veLEIXs1tbgVX7McsLGOdO9d/ntlmgzSOSiTKx32PkeTT2tp4&#xA;jEZCIhUq+nhPwI2kELosxh8reWpQquUhnYJIoZDS9n2ZTsRnGe1Uq1l+Qc/ss/4ND4/7ovStZnmt&#xA;rjX7mW1ieAQW7W5dAVl6Cr0+3xbxyGokYnLIxFVGvP397uJGrQt3Yac0V7OtpChn060uGRVVFDyO&#xA;4bif2KgdcqyYoVI8I3hE/Mn5IIG/uUfNmnWw0W4nis4rL6vJGqxvAscnxEAiKWM8ZBvU9chr8MfC&#xA;JERGiOlH4Ec0ZI7IXQrqODy3YK9tDcifU/RKzpzUK6gMQD+175VpZiOGNgG8lbogfSPenNpoujxS&#xA;XZt7JLiQXzRzxeikxSMioQB2T013+1mZj0+MGVRv177A7fPZmIju6pXd/oWw01fSsoGS4vprYzyq&#xA;rtHCdm4uD1X9k1OYuTwscNojeZFnoPxyYGgOXVW1vTrdbHVhNp9va2NskZ0u7jUK7seg51q/Lvk9&#xA;ThiITuMYxjXCfxzTOOx2SnyvbK2kX1zaWcV/qsckaxwTIJAsTdWCE5iaKH7uUoxEsljY77MMY2Nb&#xA;lOrt7XT4fMEVnbwKEht5JYuCsqyyHi8fuopUL2JzNyGOMZRER5R6dTzDYaF0kvkyxWaHULowpO8A&#xA;iCKYfrMgLsa8IiVX6T0zC7OxWJSq6rpxH4BrxDmt81WNpb+bIoYYFihk9FmiVQFqxAPwjbfHXYox&#xA;1AAFDZcgAkyDVtLgX9LR3GmW9tp8Co9hcpGqM0hI+HkOtTsR9GZ+fAPWDCMYCuE11bJR57bLzDpE&#xA;nmS/00afap9Sh9W1RIlLSSOisapVVfiG2XJcOM5pQ4Y+kWNuZr7fcmhxEUoTabpFzqT6WLSO2u7+&#xA;y5KWjRCk6ElWCqXMfIV5AHtlcsOOU/D4QJTh3Dn9tIMQTXeFtxbaHLDqEIgiitLW8tLRpVRVbirq&#xA;srFgBuSTU4JwxESFARjKMf1qQN117p1qq3Z1DTrayt7a7t002VEVfVjMtGDEfbBTc198OTDH1ccY&#xA;xEZR4fMX9uymI6hZe+X4rb9OTTWMQge4sxZCiLRDMA4Q/sBg1D0wZNII+ITEVxRr5713IMKvbuUf&#xA;OOnWy6Q9xHax2fozhFjaBYZACOiPGSki98h2hhj4fEIiNHuo/MbFcsdlbQ4rqTyxpCwWMV8rXTrO&#xA;JkDhI2chmFem3fJ6aMjghURL1b33WsPpGzcWmWcQmOj2FvfudQaG5EqrL6UPZVB+yv8AlYxwxF+H&#xA;GM/XRvegvCOgvdoaZZwi9bRLGDUJ1vxFJHKqyiOEqCQoboOVRyx8GI4vCjGZ4633oLwjehe6Ps7L&#xA;y/GNStZAp08ajGsSdY/VMafA3+SHJGX48eEccT9HGPddD9LMCO46Wx7y/BdQfmBFFdRJDMrzBo4l&#xA;CRgei9OCinw06Zr9JGUdWBIAHfly5FqgPW9Ozp3LdirsVUAfq5IIJhYlgw34k7mvtXeuS5sPp9ys&#xA;jo6hkYMp6MpqPwyJDIG0PcXsSwyOkihEBMk5I9OMDqSelR4YZERFy2DEz7njN1+Wfle5uLieXzgW&#xA;e5cyTEw15Mx5Vb4998zI+02EAAcO3n+x5qfYUZEk5Dv5ftWzflh5YnVEm84tKsYpGrxFgo8FBfbC&#xA;PafCOXD8/wBiJdgxPPKfl+1kreXfJaaRp+nWuuCIWEbRiR19TnzkaViQOFPjds5rtTLh1eTxDMRk&#xA;7nBpsePHGET9P9qifLvl8jifM0fGlKekaUH/AD0zW/lMP+rD5ftbOCP85x8u+XyKHzNHSlKekeg7&#xA;f3mP5TD/AKsPl+1eCP8AOc3l7y+yqjeZkZU2VTExA+Q9TE6TCf8ALD5ftXgj/OaHlzy6AAPMsdAa&#xA;geievj/eYPyeH/VR8v2rwR/nNjy95fBYjzOgL7N+6bf5/vMP5TD/AKsPl+1eCP8AOW/4b8ucQv8A&#xA;iWPiNwPRNP8Ak5g/J4f9VHy/avBH+cuby75fZQjeZoyi/ZUxEgfIephOkw/6sPl+1eCP85pPLvl6&#xA;NuSeZo0bxWEg/hJiNJhHLMPl+1eCP853+HPLu/8Azssfxfa/cnf5/vMH5PD/AKqPl+1eCP8AOcnl&#xA;3y8hJTzNGpIoSsJG30SYRpMI5Zh8v2rwR/nLo9A8vpMkv+JYmeMhl5Qk/ZNR/uzCNLhBB8UbeX7V&#xA;4I/zkRqWm6NqN3Jc3HmWHnKwZkWFggIAGwMh8Mnmw4skjI5Rv5ftZSiCfqQv+HfL3Pn/AImj5/ze&#xA;ia/f6mV/lMPPxR8v2seCP85E2fkvT7+V/qWvC5nX4m4QnkK9yTJlmPs6GQ+nJZ937UjEDyKe2n5b&#xA;6SkJW6uJp5G3cqwRa/6tD+vM7H2PjA9RJbBgChqP5bW0vD6peyxqu3pygSgD/J3SmQzdjxP0yPx3&#xA;/UssHcUP/wAqzkkX/jrsykAUMJ6DoN5O2V/yMT/H9n7WPgebb/lhK4UPqzMF2UGEmg9qyYnsUnnP&#xA;7P2p8DzbT8sZk2TV2XqNoSOvX/dmEdikfx/Z+1fA82k/K+RK8NWK12NISKj6JMA7EI5T+z9q/l/N&#xA;yflfIhqmrFSdiVhI2+iTEdiEcp/Z+1fy/m0PyuYLxGqnj1p6G1f+RmP8if0/s/aj8v5ploPkRNL1&#xA;NNQlvWupIgwjXhwFWUqSSWeuxOZOl7LGKfGZcRDOGGjdsqzatzsVdirsVU3tbZ2LPCjMerMoJ/HC&#xA;JFiYA9Es82/8o1qH/GI/rGYev/uZe5GT6S880HRrC+0LVJ7hkhmt2h9K6kZwsYZviqF61Gw2zndL&#xA;p4TxTJ2IrfucWEQQVl55Pv7aK5kWWOYW6xSKI6kyRTHijpt0qDkcnZ84gmwar4g9VOIhRbQltvMM&#xA;GlXc8Zq8azOnLiOdDxrStd6fPIHS8OYY5EcxaOCpUU+uvKWjJb6qqTxxm2mjEdzI0lIVY0ZH7M30&#xA;HrmwnoMYE6I2I332bDjG6Wf4I1Bbu6imniigteAa5PJlYyCqhQoLHrv4Zi/ybMSIJAEevvYeEbSy&#xA;70O9tdYGkycfrLSJGjA/A3qEcSCexrmLk00o5PDP1X97EwINI/UfKM1lJDG19b85JfRcSFouBpXl&#xA;+8A5J/lDMjNoDAgcUedd339PNlLHXVVfyRdl7X0LqKaK6laBZaOoDqrN3XdaIaEZI9mysVIESNdU&#xA;+EVyeSJGELDU7X05pDAjgvvMDT0x8O/zwjs07euO5r49y+F5qdn5J1CcP6k8UB9Z7aINybnJGxVq&#xA;cQaLUUqcjj7NnLmQNyPeQgYilMGlzSan+jpXjtpg7RyPMwRFK1rVvo2zFjgJnwEiJ82AjvSbv5Ju&#xA;/VthDcxyw3Ql9OUrIlDCCWBVlrvTbMs9mysUQRK+/oz8It+XfK0d69hcXkyLaXjSIsQLCRjHX4QQ&#xA;Ke+HSaETMTI+mV+/ZMMd1aKXylYXOm2/oXUMc73UkAumaSkm3wIqnvX2ywaCEoCiL4iL337gnwwQ&#xA;gIPJ92ef1q6gsx67WsJlLfvJVNDxoPs+5yiPZ8v4iI+rh36liMR6uHlC6S1nubu6gtEt5XgcSE1L&#xA;oKgLtvy7Y/yfIRMpERo0vhmt2W+SEttL8rnUZVINw5ZyN2I5+mij6c23ZojiwcZ6/wBgbsW0bRy+&#xA;ddOJesbqiEnmehjVEd227r6g2/HLx2lDuP7KH62Xihe3nLTvTV4oZnLFFKlQpBeT06Gp69/DJHtG&#xA;FbA/g0nxQnSbTSKOhCt9JqP+NczRzLNUySXYq7FXYq7FXYq7FXYq7FXYq7FUs8zwTT+X76KFDJK0&#xA;R4ooqTTfYZi62JlhkBzphkHpLzfRr6ax0+8sbnSZbyC9KFxV46emajojd85vT5DCEoSgZCVeXL4O&#xA;LE0CKTzRtZdtWm1G5gazs7e1W1hsfTkkZ41qyqp40qrDqfHM7T6g+IZyHDERoRonZsjLe2KyNq0m&#xA;qHUXtpTOZvXoUanLlyp06ZqychycdG7vk073acarrdxe2l9BFpEtu1+8csr8nf40NSaFB1FBTMvP&#xA;qTOMgIEcVH8bM5TsHbmiv8W6k0s/PS7gW86xjhFJLFIrxinISIoPxdxTLfz87NwlRrkSDt50y8Q9&#xA;yR31xqd5q/6QlspGAZSIHEjjilKIWb4jXvmDlnOeTjMT7t2skk3SeN5tvwbcR6RMY4Z/rBWd5Jj9&#xA;krxQslUArt1pmedfPaoHY3vZ+W2zZ4h7mz5sva23HSbhhb3JuaySySM1Y3TjyaPb7e2P5+W3oltK&#xA;9yT0I7vNfEPclsGq38VpY2/6NlP1O9F7y+IcqGvCnDb5/hmNHPMRiOA+mfF+zkwEjQ26o6DzVqaL&#xA;Kkum3DIbiW5gEcs0PH1XLlH4Ac1q3tl8ddMXcJfUSKJHPetubMZD3JVpl9qlnrf6VksZLiRmdnQq&#xA;43kBGzEMQRXMTBlyQy+IYk8+/q1xJBuk3Hmu+WSzKaTOy2jyMfWkklaQSqVILMla7/2ZmfnpgxqB&#xA;9N8yTd/Bs8Q7bKQ8wzQnTls9Ekgg06V5UjLO/ISAggsUr+113yH5sjh4cZAgb69fgjj5UOSHk1a4&#xA;rZLb6TLDFZ3n1xY+TtXcEpUp4jrlZzn01AgRlxfjZHFy26og+YZ5mb67oslxGty13arykQxs5qVY&#xA;hPjFfbLPzZP1YyfVxDnt9m6ePvCHuNa1C7jRLzTJJh9dN5KtGCuCvH06cTQU71yuepnMVKBPr4v2&#xA;ckGRPMdWYeTLyK8064tJLQ2yJK5S1kBKiKQ8go5AVAJI6ZuOzsgnAxMa35eRb8RsUnbaVprOrm2j&#xA;DIQVKqFPwigBpSoA7HM44IE3QbOELxYWIAAtogAvADgtONa8enSu+HwodwWgvT4pHcdNlHvxrU/j&#xA;khztVTJJdirsVdirsVdirsVdirsVdirsVdirsVdirsVdirsVdirsVdirsVdirsVdirsVdirsVdir&#xA;TIGFD23BHUHARarP367Di48SSp/ANg3Q7jK32yFX+Va1/wCC/sxonmqoAAKDYDoMkl2KuxV2KuxV&#xA;2KuxV2KuxV2Kv//Z</xmpGImg:image>
               </rdf:li>
            </rdf:Alt>
         </xmp:Thumbnails>
         <pdf:Producer>Adobe PDF library 11.00</pdf:Producer>
         <dc:format>image/svg+xml</dc:format>
         <xmpTPg:MaxPageSize rdf:parseType="Resource">
            <stDim:w>22.222222</stDim:w>
            <stDim:h>8.333333</stDim:h>
            <stDim:unit>Inches</stDim:unit>
         </xmpTPg:MaxPageSize>
         <xmpTPg:NPages>1</xmpTPg:NPages>
         <xmpTPg:HasVisibleTransparency>False</xmpTPg:HasVisibleTransparency>
         <xmpTPg:HasVisibleOverprint>False</xmpTPg:HasVisibleOverprint>
         <xmpTPg:PlateNames>
            <rdf:Seq>
               <rdf:li>Cyan</rdf:li>
               <rdf:li>Magenta</rdf:li>
               <rdf:li>Yellow</rdf:li>
               <rdf:li>Black</rdf:li>
            </rdf:Seq>
         </xmpTPg:PlateNames>
         <xmpTPg:SwatchGroups>
            <rdf:Seq>
               <rdf:li rdf:parseType="Resource">
                  <xmpG:groupName>Default Swatch Group</xmpG:groupName>
                  <xmpG:groupType>0</xmpG:groupType>
               </rdf:li>
            </rdf:Seq>
         </xmpTPg:SwatchGroups>
      </rdf:Description>
   </rdf:RDF>
</x:xmpmeta>
                                                                                                    
                                                                                                    
                                                                                                    
                                                                                                    
                                                                                                    
                                                                                                    
                                                                                                    
                                                                                                    
                                                                                                    
                                                                                                    
                                                                                                    
                                                                                                    
                                                                                                    
                                                                                                    
                                                                                                    
                                                                                                    
                                                                                                    
                                                                                                    
                                                                                                    
                                                                                                    
                           
<?xpacket end="w"?>
	</metadata>
<path fill="#00649E" d="M1354.1,225.1H188.8c-7.9,0-14.1-6.2-14.1-14.1v-72.1c0-7.9,6.2-14.1,14.1-14.1h1165.3
	c7.9,0,14.1,6.2,14.1,14.1V211C1368.1,218.9,1361.5,225.1,1354.1,225.1z"/>
<path fill="#00649E" d="M1546.6,337.1H188.8c-7.9,0-14.1-6.2-14.1-14.1V251c0-7.9,6.2-14.1,14.1-14.1h1357.8
	c7.9,0,14.1,6.2,14.1,14.1v72.1C1560.7,331,1554.5,337.1,1546.6,337.1z"/>
<path fill="#008AC0" d="M275.4,450.1h-84.8c-7.9,0-14.1-6.2-14.1-14.1V364c0-7.9,6.2-14.1,14.1-14.1h84.8c7.9,0,14.1,6.2,14.1,14.1
	V436C289.5,444,283.3,450.1,275.4,450.1z"/>
<g enable-background="new    ">
	<path fill="#FFFFFF" d="M194.9,156.7v-10.6h46.9v10.6h-17.2v46.7h-12.6v-46.7H194.9z"/>
	<path fill="#FFFFFF" d="M258.6,146.1v21.6h0.2c1.4-2.4,3.3-4.2,5.5-5.3c2.2-1.1,4.4-1.6,6.6-1.6c3,0,5.5,0.4,7.5,1.2
		c2,0.8,3.5,2,4.6,3.4c1.1,1.5,1.9,3.3,2.4,5.4c0.5,2.1,0.7,4.5,0.7,7v25.5h-11.4V180c0-3.4-0.5-6-1.6-7.7c-1.1-1.7-3-2.5-5.7-2.5
		c-3.1,0-5.3,0.9-6.7,2.8c-1.4,1.8-2.1,4.9-2.1,9.1v21.7h-11.4v-57.3H258.6z"/>
	<path fill="#FFFFFF" d="M307,193.5c1.7,1.7,4.2,2.5,7.4,2.5c2.3,0,4.3-0.6,5.9-1.7c1.7-1.1,2.7-2.4,3-3.6h10
		c-1.6,5-4.1,8.5-7.4,10.7c-3.3,2.1-7.3,3.2-12,3.2c-3.3,0-6.2-0.5-8.8-1.6c-2.6-1-4.8-2.5-6.7-4.5c-1.8-1.9-3.2-4.2-4.2-6.9
		c-1-2.7-1.5-5.6-1.5-8.8c0-3.1,0.5-6,1.5-8.7c1-2.7,2.5-5,4.3-6.9c1.9-2,4.1-3.5,6.7-4.6c2.6-1.1,5.5-1.7,8.6-1.7
		c3.5,0,6.6,0.7,9.2,2c2.6,1.4,4.8,3.2,6.5,5.5c1.7,2.3,2.9,4.9,3.6,7.9c0.7,2.9,1,6,0.8,9.2h-29.9
		C304.3,189.1,305.3,191.8,307,193.5z M319.9,171.6c-1.4-1.5-3.4-2.2-6.2-2.2c-1.8,0-3.3,0.3-4.5,0.9c-1.2,0.6-2.2,1.4-2.9,2.3
		c-0.7,0.9-1.2,1.9-1.5,2.9c-0.3,1-0.5,1.9-0.5,2.7h18.5C322.2,175.3,321.2,173.1,319.9,171.6z"/>
	<path fill="#FFFFFF" d="M358.8,169.6v-7.6h6.8v-3.2c0-3.7,1.1-6.7,3.4-9.1c2.3-2.4,5.8-3.5,10.4-3.5c1,0,2,0,3,0.1
		c1,0.1,2,0.1,3,0.2v8.5c-1.3-0.2-2.7-0.2-4.2-0.2c-1.6,0-2.7,0.4-3.3,1.1c-0.7,0.7-1,1.9-1,3.6v2.5h7.9v7.6H377v33.9h-11.4v-33.9
		H358.8z"/>
	<path fill="#FFFFFF" d="M390.2,155.5v-9.4h11.4v9.4H390.2z M401.6,161.9v41.5h-11.4v-41.5H401.6z"/>
	<path fill="#FFFFFF" d="M421.4,161.9v7.7h0.2c0.5-1.3,1.3-2.5,2.2-3.6c0.9-1.1,2-2,3.1-2.8c1.2-0.8,2.4-1.4,3.8-1.8
		c1.3-0.4,2.7-0.6,4.2-0.6c0.7,0,1.6,0.1,2.5,0.4v10.6c-0.5-0.1-1.2-0.2-1.9-0.3c-0.7-0.1-1.5-0.1-2.2-0.1c-2.1,0-3.9,0.3-5.3,1
		c-1.4,0.7-2.6,1.6-3.5,2.8c-0.9,1.2-1.5,2.6-1.9,4.2c-0.4,1.6-0.6,3.3-0.6,5.2v18.7h-11.4v-41.5H421.4z"/>
	<path fill="#FFFFFF" d="M451.3,193.1c0.5,0.9,1.2,1.6,2,2.2c0.8,0.6,1.7,1,2.8,1.2c1,0.3,2.1,0.4,3.2,0.4c0.8,0,1.6-0.1,2.5-0.3
		c0.9-0.2,1.7-0.5,2.4-0.9c0.7-0.4,1.3-0.9,1.8-1.6c0.5-0.7,0.7-1.5,0.7-2.5c0-1.7-1.1-3-3.4-3.9c-2.3-0.9-5.4-1.7-9.5-2.6
		c-1.7-0.4-3.3-0.8-4.9-1.3c-1.6-0.5-3-1.2-4.2-2c-1.2-0.8-2.2-1.9-3-3.1c-0.7-1.3-1.1-2.8-1.1-4.6c0-2.7,0.5-4.9,1.6-6.6
		c1-1.7,2.4-3.1,4.1-4.1c1.7-1,3.6-1.7,5.8-2.1c2.1-0.4,4.3-0.6,6.6-0.6c2.2,0,4.4,0.2,6.5,0.6c2.1,0.4,4,1.2,5.7,2.2
		c1.7,1,3,2.4,4.1,4.1c1.1,1.7,1.8,3.8,2,6.4h-10.8c-0.2-2.2-1-3.7-2.5-4.5c-1.5-0.8-3.3-1.2-5.3-1.2c-0.6,0-1.3,0-2.1,0.1
		c-0.7,0.1-1.4,0.3-2,0.5c-0.6,0.3-1.1,0.7-1.6,1.2c-0.4,0.5-0.6,1.2-0.6,2c0,1,0.4,1.8,1.1,2.5c0.7,0.6,1.7,1.2,2.9,1.6
		c1.2,0.4,2.6,0.8,4.1,1.1c1.6,0.3,3.1,0.7,4.7,1c1.7,0.4,3.3,0.8,4.9,1.4c1.6,0.5,3,1.2,4.2,2.1c1.2,0.9,2.2,2,3,3.3
		c0.7,1.3,1.1,2.9,1.1,4.9c0,2.7-0.5,5-1.6,6.9c-1.1,1.8-2.5,3.3-4.3,4.5c-1.8,1.1-3.8,1.9-6.1,2.4c-2.3,0.5-4.6,0.7-6.9,0.7
		c-2.4,0-4.8-0.2-7.1-0.7c-2.3-0.5-4.3-1.3-6.1-2.4c-1.8-1.1-3.3-2.6-4.4-4.5c-1.2-1.8-1.8-4.2-1.9-6.9h10.8
		C450.6,191.2,450.8,192.2,451.3,193.1z"/>
	<path fill="#FFFFFF" d="M507.6,161.9v7.6h-8.3v20.5c0,1.9,0.3,3.2,1,3.9s1.9,1,3.9,1c0.6,0,1.3,0,1.8-0.1c0.6-0.1,1.1-0.1,1.7-0.2
		v8.8c-1,0.2-2,0.3-3.2,0.3c-1.2,0.1-2.3,0.1-3.4,0.1c-1.8,0-3.4-0.1-5-0.4c-1.6-0.2-3-0.7-4.2-1.4c-1.2-0.7-2.2-1.7-2.8-3
		c-0.7-1.3-1-3-1-5.1v-24.5H481v-7.6h6.9v-12.4h11.4v12.4H507.6z"/>
	<path fill="#FFFFFF" d="M546.2,161.9v5.3h0.2c1.4-2.2,3.2-3.9,5.3-4.9c2.1-1,4.5-1.5,7.1-1.5c3.3,0,6.1,0.6,8.4,1.8
		c2.4,1.2,4.3,2.9,5.9,4.9c1.6,2,2.7,4.4,3.4,7.1c0.7,2.7,1.1,5.5,1.1,8.5c0,2.8-0.4,5.5-1.1,8c-0.7,2.6-1.9,4.8-3.4,6.8
		c-1.5,2-3.4,3.6-5.7,4.7c-2.3,1.2-4.9,1.8-8,1.8c-2.6,0-4.9-0.5-7.1-1.6c-2.2-1-3.9-2.6-5.3-4.6h-0.2v19.7h-11.4v-56H546.2z
		 M561,194.8c1.3-0.7,2.3-1.7,3-2.9c0.8-1.2,1.3-2.6,1.6-4.2s0.5-3.2,0.5-4.9c0-1.7-0.2-3.3-0.5-4.9c-0.3-1.6-0.9-3-1.7-4.3
		c-0.8-1.3-1.8-2.3-3.1-3c-1.3-0.8-2.8-1.2-4.6-1.2c-1.9,0-3.4,0.4-4.7,1.2c-1.3,0.8-2.3,1.8-3,3c-0.8,1.2-1.3,2.6-1.6,4.3
		c-0.3,1.6-0.5,3.3-0.5,5c0,1.7,0.2,3.3,0.5,4.9c0.3,1.6,0.9,3,1.7,4.2c0.8,1.2,1.8,2.2,3.1,2.9c1.3,0.7,2.8,1.1,4.7,1.1
		C558.2,195.9,559.7,195.6,561,194.8z"/>
	<path fill="#FFFFFF" d="M596.6,193.5c1.7,1.7,4.2,2.5,7.4,2.5c2.3,0,4.3-0.6,5.9-1.7c1.7-1.1,2.7-2.4,3-3.6h10
		c-1.6,5-4.1,8.5-7.4,10.7c-3.3,2.1-7.3,3.2-12,3.2c-3.3,0-6.2-0.5-8.8-1.6c-2.6-1-4.8-2.5-6.7-4.5c-1.8-1.9-3.2-4.2-4.2-6.9
		c-1-2.7-1.5-5.6-1.5-8.8c0-3.1,0.5-6,1.5-8.7c1-2.7,2.5-5,4.3-6.9c1.9-2,4.1-3.5,6.7-4.6c2.6-1.1,5.5-1.7,8.6-1.7
		c3.5,0,6.6,0.7,9.2,2c2.6,1.4,4.8,3.2,6.5,5.5c1.7,2.3,2.9,4.9,3.6,7.9c0.7,2.9,1,6,0.8,9.2h-29.9
		C593.9,189.1,594.8,191.8,596.6,193.5z M609.4,171.6c-1.4-1.5-3.4-2.2-6.2-2.2c-1.8,0-3.3,0.3-4.5,0.9c-1.2,0.6-2.2,1.4-2.9,2.3
		c-0.7,0.9-1.2,1.9-1.5,2.9c-0.3,1-0.5,1.9-0.5,2.7h18.5C611.7,175.3,610.8,173.1,609.4,171.6z"/>
	<path fill="#FFFFFF" d="M641.2,161.9v7.7h0.2c0.5-1.3,1.3-2.5,2.2-3.6c0.9-1.1,2-2,3.1-2.8c1.2-0.8,2.4-1.4,3.8-1.8
		c1.3-0.4,2.7-0.6,4.2-0.6c0.7,0,1.6,0.1,2.5,0.4v10.6c-0.5-0.1-1.2-0.2-1.9-0.3c-0.7-0.1-1.5-0.1-2.2-0.1c-2.1,0-3.9,0.3-5.3,1
		c-1.4,0.7-2.6,1.6-3.5,2.8c-0.9,1.2-1.5,2.6-1.9,4.2c-0.4,1.6-0.6,3.3-0.6,5.2v18.7h-11.4v-41.5H641.2z"/>
	<path fill="#FFFFFF" d="M671.2,193.1c0.5,0.9,1.2,1.6,2,2.2c0.8,0.6,1.7,1,2.8,1.2c1,0.3,2.1,0.4,3.2,0.4c0.8,0,1.6-0.1,2.5-0.3
		c0.9-0.2,1.7-0.5,2.4-0.9c0.7-0.4,1.3-0.9,1.8-1.6c0.5-0.7,0.7-1.5,0.7-2.5c0-1.7-1.1-3-3.4-3.9c-2.3-0.9-5.4-1.7-9.5-2.6
		c-1.7-0.4-3.3-0.8-4.9-1.3c-1.6-0.5-3-1.2-4.2-2c-1.2-0.8-2.2-1.9-3-3.1c-0.7-1.3-1.1-2.8-1.1-4.6c0-2.7,0.5-4.9,1.6-6.6
		c1-1.7,2.4-3.1,4.1-4.1c1.7-1,3.6-1.7,5.8-2.1c2.1-0.4,4.3-0.6,6.6-0.6c2.2,0,4.4,0.2,6.5,0.6c2.1,0.4,4,1.2,5.7,2.2
		c1.7,1,3,2.4,4.1,4.1c1.1,1.7,1.8,3.8,2,6.4h-10.8c-0.2-2.2-1-3.7-2.5-4.5c-1.5-0.8-3.3-1.2-5.3-1.2c-0.6,0-1.3,0-2.1,0.1
		c-0.7,0.1-1.4,0.3-2,0.5c-0.6,0.3-1.1,0.7-1.6,1.2c-0.4,0.5-0.6,1.2-0.6,2c0,1,0.4,1.8,1.1,2.5c0.7,0.6,1.7,1.2,2.9,1.6
		c1.2,0.4,2.6,0.8,4.1,1.1c1.6,0.3,3.1,0.7,4.7,1c1.7,0.4,3.3,0.8,4.9,1.4c1.6,0.5,3,1.2,4.2,2.1c1.2,0.9,2.2,2,3,3.3
		c0.7,1.3,1.1,2.9,1.1,4.9c0,2.7-0.5,5-1.6,6.9c-1.1,1.8-2.5,3.3-4.3,4.5c-1.8,1.1-3.8,1.9-6.1,2.4c-2.3,0.5-4.6,0.7-6.9,0.7
		c-2.4,0-4.8-0.2-7.1-0.7c-2.3-0.5-4.3-1.3-6.1-2.4c-1.8-1.1-3.3-2.6-4.4-4.5c-1.2-1.8-1.8-4.2-1.9-6.9h10.8
		C670.4,191.2,670.7,192.2,671.2,193.1z"/>
	<path fill="#FFFFFF" d="M704.9,173.7c1-2.7,2.5-5,4.3-6.9c1.9-1.9,4.1-3.4,6.7-4.4c2.6-1,5.6-1.6,8.8-1.6c3.3,0,6.2,0.5,8.9,1.6
		c2.6,1,4.9,2.5,6.8,4.4c1.9,1.9,3.3,4.2,4.3,6.9c1,2.7,1.5,5.7,1.5,9c0,3.3-0.5,6.3-1.5,9c-1,2.7-2.5,5-4.3,6.9
		c-1.9,1.9-4.1,3.4-6.8,4.4c-2.6,1-5.6,1.5-8.9,1.5c-3.3,0-6.2-0.5-8.8-1.5c-2.6-1-4.9-2.5-6.7-4.4c-1.9-1.9-3.3-4.2-4.3-6.9
		c-1-2.7-1.5-5.7-1.5-9C703.4,179.4,703.9,176.4,704.9,173.7z M715.3,187.6c0.3,1.6,0.9,3,1.6,4.3c0.8,1.3,1.8,2.3,3.1,3
		c1.3,0.7,2.9,1.1,4.8,1.1c1.9,0,3.5-0.4,4.9-1.1c1.3-0.7,2.4-1.8,3.1-3c0.8-1.3,1.3-2.7,1.6-4.3c0.3-1.6,0.5-3.2,0.5-4.9
		c0-1.7-0.2-3.3-0.5-4.9c-0.3-1.6-0.9-3-1.6-4.3c-0.8-1.2-1.8-2.2-3.1-3c-1.3-0.8-2.9-1.2-4.9-1.2c-1.9,0-3.5,0.4-4.8,1.2
		c-1.3,0.8-2.3,1.8-3.1,3c-0.8,1.2-1.3,2.6-1.6,4.3c-0.3,1.6-0.5,3.2-0.5,4.9C714.8,184.4,714.9,186,715.3,187.6z"/>
	<path fill="#FFFFFF" d="M764.5,161.9v5.8h0.2c1.4-2.4,3.3-4.2,5.6-5.3c2.3-1.1,4.7-1.6,7.1-1.6c3,0,5.5,0.4,7.5,1.2
		c2,0.8,3.5,2,4.6,3.4c1.1,1.5,1.9,3.3,2.4,5.4c0.5,2.1,0.7,4.5,0.7,7v25.5h-11.4V180c0-3.4-0.5-6-1.6-7.7c-1.1-1.7-3-2.5-5.7-2.5
		c-3.1,0-5.3,0.9-6.7,2.8c-1.4,1.8-2.1,4.9-2.1,9.1v21.7h-11.4v-41.5H764.5z"/>
	<path fill="#FFFFFF" d="M834.6,161.9v5.6h0.2c1.5-2.1,3.3-3.8,5.4-5c2.1-1.2,4.5-1.8,7.3-1.8c2.6,0,5,0.5,7.2,1.5
		c2.2,1,3.8,2.8,4.9,5.4c1.2-1.8,2.9-3.4,5-4.8c2.1-1.4,4.6-2.1,7.5-2.1c2.2,0,4.2,0.3,6.1,0.8c1.9,0.5,3.5,1.4,4.8,2.6
		c1.3,1.2,2.4,2.7,3.1,4.6c0.7,1.9,1.1,4.2,1.1,6.9v27.8h-11.4v-23.5c0-1.4-0.1-2.7-0.2-3.9c-0.1-1.2-0.4-2.3-0.9-3.2
		c-0.5-0.9-1.2-1.6-2.1-2.2c-0.9-0.5-2.2-0.8-3.8-0.8s-2.9,0.3-3.9,0.9c-1,0.6-1.8,1.4-2.3,2.4c-0.6,1-0.9,2.1-1.1,3.4
		c-0.2,1.3-0.3,2.5-0.3,3.8v23.1h-11.4v-23.3c0-1.2,0-2.4-0.1-3.6c-0.1-1.2-0.3-2.3-0.7-3.3c-0.4-1-1.1-1.8-2-2.4
		c-0.9-0.6-2.3-0.9-4.1-0.9c-0.5,0-1.2,0.1-2.1,0.4c-0.9,0.2-1.7,0.7-2.6,1.4c-0.8,0.7-1.5,1.6-2.1,2.9c-0.6,1.3-0.9,2.9-0.9,4.9
		v24.1h-11.4v-41.5H834.6z"/>
	<path fill="#FFFFFF" d="M908.4,193.5c1.7,1.7,4.2,2.5,7.4,2.5c2.3,0,4.3-0.6,5.9-1.7c1.7-1.1,2.7-2.4,3-3.6h10
		c-1.6,5-4.1,8.5-7.4,10.7c-3.3,2.1-7.3,3.2-12,3.2c-3.3,0-6.2-0.5-8.8-1.6c-2.6-1-4.8-2.5-6.7-4.5c-1.8-1.9-3.2-4.2-4.2-6.9
		c-1-2.7-1.5-5.6-1.5-8.8c0-3.1,0.5-6,1.5-8.7c1-2.7,2.5-5,4.3-6.9c1.9-2,4.1-3.5,6.7-4.6c2.6-1.1,5.5-1.7,8.6-1.7
		c3.5,0,6.6,0.7,9.2,2c2.6,1.4,4.8,3.2,6.5,5.5c1.7,2.3,2.9,4.9,3.7,7.9c0.7,2.9,1,6,0.8,9.2h-29.9
		C905.8,189.1,906.7,191.8,908.4,193.5z M921.3,171.6c-1.4-1.5-3.4-2.2-6.2-2.2c-1.8,0-3.3,0.3-4.5,0.9c-1.2,0.6-2.2,1.4-2.9,2.3
		c-0.7,0.9-1.2,1.9-1.5,2.9c-0.3,1-0.5,1.9-0.5,2.7h18.5C923.6,175.3,922.7,173.1,921.3,171.6z"/>
	<path fill="#FFFFFF" d="M953.1,161.9v5.8h0.2c1.4-2.4,3.3-4.2,5.6-5.3c2.3-1.1,4.7-1.6,7.1-1.6c3,0,5.5,0.4,7.5,1.2
		c2,0.8,3.5,2,4.6,3.4c1.1,1.5,1.9,3.3,2.4,5.4c0.5,2.1,0.7,4.5,0.7,7v25.5h-11.4V180c0-3.4-0.5-6-1.6-7.7c-1.1-1.7-3-2.5-5.7-2.5
		c-3.1,0-5.3,0.9-6.7,2.8c-1.4,1.8-2.1,4.9-2.1,9.1v21.7h-11.4v-41.5H953.1z"/>
	<path fill="#FFFFFF" d="M1012.6,161.9v7.6h-8.3v20.5c0,1.9,0.3,3.2,1,3.9c0.6,0.6,1.9,1,3.9,1c0.6,0,1.3,0,1.8-0.1
		c0.6-0.1,1.1-0.1,1.7-0.2v8.8c-1,0.2-2,0.3-3.2,0.3c-1.2,0.1-2.3,0.1-3.4,0.1c-1.8,0-3.4-0.1-5-0.4c-1.6-0.2-3-0.7-4.2-1.4
		c-1.2-0.7-2.2-1.7-2.8-3c-0.7-1.3-1-3-1-5.1v-24.5H986v-7.6h6.9v-12.4h11.4v12.4H1012.6z"/>
	<path fill="#FFFFFF" d="M1018.4,155.5v-9.4h11.4v9.4H1018.4z M1029.8,161.9v41.5h-11.4v-41.5H1029.8z"/>
	<path fill="#FFFFFF" d="M1039,173.7c1-2.7,2.5-5,4.3-6.9c1.9-1.9,4.1-3.4,6.7-4.4c2.6-1,5.6-1.6,8.8-1.6c3.3,0,6.2,0.5,8.9,1.6
		c2.6,1,4.9,2.5,6.8,4.4c1.9,1.9,3.3,4.2,4.3,6.9c1,2.7,1.5,5.7,1.5,9c0,3.3-0.5,6.3-1.5,9c-1,2.7-2.5,5-4.3,6.9
		c-1.9,1.9-4.1,3.4-6.8,4.4c-2.6,1-5.6,1.5-8.9,1.5c-3.3,0-6.2-0.5-8.8-1.5s-4.9-2.5-6.7-4.4c-1.9-1.9-3.3-4.2-4.3-6.9
		c-1-2.7-1.5-5.7-1.5-9C1037.5,179.4,1038,176.4,1039,173.7z M1049.4,187.6c0.3,1.6,0.9,3,1.6,4.3c0.8,1.3,1.8,2.3,3.1,3
		c1.3,0.7,2.9,1.1,4.8,1.1c1.9,0,3.5-0.4,4.9-1.1c1.3-0.7,2.4-1.8,3.1-3c0.8-1.3,1.3-2.7,1.6-4.3c0.3-1.6,0.5-3.2,0.5-4.9
		c0-1.7-0.2-3.3-0.5-4.9c-0.3-1.6-0.9-3-1.6-4.3c-0.8-1.2-1.8-2.2-3.1-3c-1.3-0.8-2.9-1.2-4.9-1.2c-1.9,0-3.5,0.4-4.8,1.2
		c-1.3,0.8-2.3,1.8-3.1,3c-0.8,1.2-1.3,2.6-1.6,4.3c-0.3,1.6-0.5,3.2-0.5,4.9C1048.9,184.4,1049,186,1049.4,187.6z"/>
	<path fill="#FFFFFF" d="M1098.6,161.9v5.8h0.2c1.4-2.4,3.3-4.2,5.6-5.3c2.3-1.1,4.7-1.6,7.1-1.6c3,0,5.5,0.4,7.5,1.2
		c2,0.8,3.5,2,4.6,3.4c1.1,1.5,1.9,3.3,2.4,5.4c0.5,2.1,0.7,4.5,0.7,7v25.5h-11.4V180c0-3.4-0.5-6-1.6-7.7c-1.1-1.7-3-2.5-5.7-2.5
		c-3.1,0-5.3,0.9-6.7,2.8c-1.4,1.8-2.1,4.9-2.1,9.1v21.7h-11.4v-41.5H1098.6z"/>
	<path fill="#FFFFFF" d="M1147.5,193.5c1.7,1.7,4.2,2.5,7.4,2.5c2.3,0,4.3-0.6,5.9-1.7c1.7-1.1,2.7-2.4,3-3.6h10
		c-1.6,5-4.1,8.5-7.4,10.7c-3.3,2.1-7.3,3.2-12,3.2c-3.3,0-6.2-0.5-8.8-1.6c-2.6-1-4.8-2.5-6.7-4.5c-1.8-1.9-3.2-4.2-4.2-6.9
		c-1-2.7-1.5-5.6-1.5-8.8c0-3.1,0.5-6,1.5-8.7c1-2.7,2.5-5,4.3-6.9c1.9-2,4.1-3.5,6.7-4.6c2.6-1.1,5.5-1.7,8.6-1.7
		c3.5,0,6.6,0.7,9.2,2c2.6,1.4,4.8,3.2,6.5,5.5c1.7,2.3,2.9,4.9,3.7,7.9c0.7,2.9,1,6,0.8,9.2h-29.9
		C1144.9,189.1,1145.8,191.8,1147.5,193.5z M1160.4,171.6c-1.4-1.5-3.4-2.2-6.2-2.2c-1.8,0-3.3,0.3-4.5,0.9
		c-1.2,0.6-2.2,1.4-2.9,2.3c-0.7,0.9-1.2,1.9-1.5,2.9c-0.3,1-0.5,1.9-0.5,2.7h18.5C1162.7,175.3,1161.8,173.1,1160.4,171.6z"/>
	<path fill="#FFFFFF" d="M1210.8,198.1c-1.3,2.2-3.1,3.9-5.3,4.9c-2.2,1-4.6,1.5-7.3,1.5c-3.1,0-5.8-0.6-8.2-1.8
		c-2.4-1.2-4.3-2.8-5.8-4.9c-1.5-2.1-2.7-4.4-3.4-7.1c-0.8-2.7-1.2-5.5-1.2-8.3c0-2.8,0.4-5.5,1.2-8.1c0.8-2.6,1.9-4.9,3.4-6.9
		c1.5-2,3.4-3.6,5.7-4.8c2.3-1.2,5-1.8,8-1.8c2.5,0,4.8,0.5,7,1.6c2.2,1,4,2.6,5.3,4.6h0.2v-20.9h11.4v57.3H1211v-5.3H1210.8z
		 M1210.3,177.6c-0.3-1.6-0.9-3-1.6-4.2c-0.8-1.2-1.8-2.2-3-2.9c-1.2-0.7-2.8-1.1-4.7-1.1c-1.9,0-3.4,0.4-4.7,1.1
		c-1.3,0.7-2.3,1.7-3.1,3c-0.8,1.2-1.3,2.6-1.7,4.2c-0.3,1.6-0.5,3.2-0.5,4.9c0,1.6,0.2,3.2,0.6,4.8c0.4,1.6,1,3,1.8,4.3
		c0.8,1.3,1.9,2.3,3.1,3c1.3,0.8,2.8,1.2,4.5,1.2c1.9,0,3.4-0.4,4.7-1.1c1.3-0.7,2.3-1.8,3-3c0.7-1.3,1.3-2.7,1.6-4.3
		c0.3-1.6,0.5-3.3,0.5-5C1210.8,180.8,1210.7,179.2,1210.3,177.6z"/>
	<path fill="#FFFFFF" d="M1264.1,146.1V167h0.2c1.4-2.1,3.3-3.7,5.7-4.7c2.4-1,4.9-1.5,7.4-1.5c2.1,0,4.1,0.4,6.2,1.3
		c2,0.9,3.9,2.2,5.5,3.9c1.6,1.8,3,4,4,6.8c1,2.8,1.5,6,1.5,9.8c0,3.8-0.5,7.1-1.5,9.8c-1,2.8-2.3,5-4,6.8c-1.6,1.8-3.5,3.1-5.5,3.9
		c-2,0.9-4.1,1.3-6.2,1.3c-3,0-5.8-0.5-8.2-1.4c-2.4-1-4.2-2.6-5.5-4.9h-0.2v5.3h-10.8v-57.3H1264.1z M1282.5,177.7
		c-0.4-1.6-1-3-1.8-4.3c-0.8-1.2-1.8-2.2-3-2.9s-2.7-1.1-4.4-1.1c-1.7,0-3.1,0.4-4.3,1.1c-1.2,0.7-2.2,1.7-3,2.9
		c-0.8,1.2-1.4,2.6-1.8,4.3c-0.4,1.6-0.6,3.3-0.6,5.1c0,1.7,0.2,3.4,0.6,5c0.4,1.6,1,3,1.8,4.3c0.8,1.2,1.8,2.2,3,2.9
		c1.2,0.7,2.7,1.1,4.3,1.1c1.7,0,3.2-0.4,4.4-1.1c1.2-0.7,2.2-1.7,3-2.9c0.8-1.2,1.4-2.6,1.8-4.3c0.4-1.6,0.6-3.3,0.6-5
		C1283.1,180.9,1282.9,179.3,1282.5,177.7z"/>
	<path fill="#FFFFFF" d="M1317,215.8c-2.2,1.4-5.2,2.2-9.1,2.2c-1.2,0-2.3,0-3.5-0.1c-1.2-0.1-2.3-0.2-3.5-0.3v-9.4
		c1.1,0.1,2.2,0.2,3.3,0.3c1.1,0.1,2.2,0.1,3.4,0.1c1.5-0.2,2.6-0.7,3.3-1.8c0.7-1,1.1-2.1,1.1-3.4c0-0.9-0.2-1.8-0.5-2.6
		l-14.5-38.9h12.1l9.4,28.4h0.2l9.1-28.4h11.8l-17.3,46.6C1320.9,211.9,1319.2,214.3,1317,215.8z"/>
</g>
<g enable-background="new    ">
	<path fill="#FFFFFF" d="M209,275.8v5.8h0.2c1.4-2.4,3.3-4.2,5.6-5.3c2.3-1.1,4.7-1.6,7.1-1.6c3,0,5.5,0.4,7.5,1.2
		c2,0.8,3.5,2,4.6,3.4c1.1,1.5,1.9,3.3,2.4,5.4c0.5,2.1,0.7,4.5,0.7,7v25.5h-11.4v-23.4c0-3.4-0.5-6-1.6-7.7c-1.1-1.7-3-2.5-5.7-2.5
		c-3.1,0-5.3,0.9-6.7,2.8c-1.4,1.8-2.1,4.9-2.1,9.1v21.7h-11.4v-41.5H209z"/>
	<path fill="#FFFFFF" d="M245.3,288.5c0.2-2.7,0.8-4.9,2-6.7c1.2-1.8,2.7-3.2,4.5-4.3c1.8-1.1,3.9-1.8,6.1-2.3
		c2.3-0.5,4.6-0.7,6.9-0.7c2.1,0,4.2,0.1,6.3,0.4c2.1,0.3,4.1,0.9,5.9,1.7c1.8,0.9,3.2,2,4.3,3.6c1.1,1.5,1.7,3.5,1.7,6.1V308
		c0,1.9,0.1,3.7,0.3,5.4c0.2,1.7,0.6,3,1.1,3.9h-11.6c-0.2-0.6-0.4-1.3-0.5-2c-0.1-0.7-0.2-1.4-0.3-2c-1.8,1.9-4,3.2-6.4,3.9
		c-2.5,0.7-5,1.1-7.5,1.1c-2,0-3.8-0.2-5.5-0.7c-1.7-0.5-3.2-1.2-4.5-2.2c-1.3-1-2.3-2.3-3-3.9c-0.7-1.6-1.1-3.4-1.1-5.5
		c0-2.4,0.4-4.3,1.2-5.8c0.8-1.5,1.9-2.7,3.2-3.6c1.3-0.9,2.8-1.6,4.5-2c1.7-0.5,3.4-0.8,5.1-1.1c1.7-0.3,3.4-0.5,5.1-0.6
		c1.7-0.2,3.1-0.4,4.4-0.7c1.3-0.3,2.3-0.8,3-1.4c0.7-0.6,1.1-1.5,1-2.7c0-1.2-0.2-2.2-0.6-2.9c-0.4-0.7-0.9-1.3-1.6-1.7
		c-0.7-0.4-1.4-0.7-2.3-0.8c-0.9-0.1-1.8-0.2-2.8-0.2c-2.2,0-4,0.5-5.3,1.4c-1.3,1-2,2.6-2.2,4.8H245.3z M271.6,297
		c-0.5,0.4-1.1,0.8-1.8,1c-0.7,0.2-1.5,0.4-2.3,0.6c-0.8,0.2-1.7,0.3-2.6,0.4c-0.9,0.1-1.8,0.2-2.7,0.4c-0.9,0.2-1.7,0.4-2.5,0.6
		c-0.8,0.3-1.6,0.6-2.2,1.1c-0.6,0.5-1.1,1-1.5,1.7c-0.4,0.7-0.6,1.6-0.6,2.6c0,1,0.2,1.9,0.6,2.6c0.4,0.7,0.9,1.2,1.5,1.6
		c0.6,0.4,1.4,0.7,2.2,0.8c0.9,0.2,1.7,0.2,2.6,0.2c2.2,0,4-0.4,5.2-1.1c1.2-0.7,2.1-1.6,2.7-2.7c0.6-1,0.9-2.1,1.1-3.2
		c0.1-1.1,0.2-1.9,0.2-2.6V297z"/>
	<path fill="#FFFFFF" d="M302.9,275.8v5.6h0.2c1.5-2.1,3.3-3.8,5.4-5c2.1-1.2,4.5-1.8,7.3-1.8c2.6,0,5,0.5,7.2,1.5
		c2.2,1,3.8,2.8,4.9,5.4c1.2-1.8,2.9-3.4,5-4.8c2.1-1.4,4.6-2.1,7.5-2.1c2.2,0,4.2,0.3,6.1,0.8c1.9,0.5,3.5,1.4,4.8,2.6
		c1.3,1.2,2.4,2.7,3.1,4.6c0.7,1.9,1.1,4.2,1.1,6.9v27.8h-11.4v-23.5c0-1.4-0.1-2.7-0.2-3.9c-0.1-1.2-0.4-2.3-0.9-3.2
		c-0.5-0.9-1.2-1.6-2.1-2.2c-0.9-0.5-2.2-0.8-3.8-0.8c-1.6,0-2.9,0.3-3.9,0.9c-1,0.6-1.8,1.4-2.3,2.4c-0.6,1-0.9,2.1-1.1,3.4
		c-0.2,1.3-0.3,2.5-0.3,3.8v23.1h-11.4V294c0-1.2,0-2.4-0.1-3.6c-0.1-1.2-0.3-2.3-0.7-3.3c-0.4-1-1.1-1.8-2-2.4
		c-0.9-0.6-2.3-0.9-4.1-0.9c-0.5,0-1.2,0.1-2.1,0.4c-0.9,0.2-1.7,0.7-2.6,1.4c-0.8,0.7-1.5,1.6-2.1,2.9c-0.6,1.3-0.9,2.9-0.9,4.9
		v24.1h-11.4v-41.5H302.9z"/>
	<path fill="#FFFFFF" d="M376.7,307.3c1.7,1.7,4.2,2.5,7.4,2.5c2.3,0,4.3-0.6,5.9-1.7c1.7-1.1,2.7-2.4,3-3.6h10
		c-1.6,5-4.1,8.5-7.4,10.7c-3.3,2.1-7.3,3.2-12,3.2c-3.3,0-6.2-0.5-8.8-1.6c-2.6-1-4.8-2.5-6.7-4.5c-1.8-1.9-3.2-4.2-4.2-6.9
		c-1-2.7-1.5-5.6-1.5-8.8c0-3.1,0.5-6,1.5-8.7c1-2.7,2.5-5,4.3-6.9c1.9-2,4.1-3.5,6.7-4.6c2.6-1.1,5.5-1.7,8.6-1.7
		c3.5,0,6.6,0.7,9.2,2c2.6,1.4,4.8,3.2,6.5,5.5c1.7,2.3,2.9,4.9,3.6,7.9c0.7,2.9,1,6,0.8,9.2h-29.9C374,303,375,305.6,376.7,307.3z
		 M389.6,285.5c-1.4-1.5-3.4-2.2-6.2-2.2c-1.8,0-3.3,0.3-4.5,0.9c-1.2,0.6-2.2,1.4-2.9,2.3c-0.7,0.9-1.2,1.9-1.5,2.9
		c-0.3,1-0.5,1.9-0.5,2.7h18.5C391.9,289.2,390.9,287,389.6,285.5z"/>
	<path fill="#FFFFFF" d="M433.2,269.4V260h11.4v9.4H433.2z M444.6,275.8v41.5h-11.4v-41.5H444.6z"/>
	<path fill="#FFFFFF" d="M464.4,275.8v5.8h0.2c1.4-2.4,3.3-4.2,5.6-5.3c2.3-1.1,4.7-1.6,7.1-1.6c3,0,5.5,0.4,7.5,1.2
		c2,0.8,3.5,2,4.6,3.4c1.1,1.5,1.9,3.3,2.4,5.4c0.5,2.1,0.7,4.5,0.7,7v25.5H481v-23.4c0-3.4-0.5-6-1.6-7.7c-1.1-1.7-3-2.5-5.7-2.5
		c-3.1,0-5.3,0.9-6.7,2.8c-1.4,1.8-2.1,4.9-2.1,9.1v21.7h-11.4v-41.5H464.4z"/>
	<path fill="#FFFFFF" d="M524.5,285.7v-12.3c-0.1-1.8,0.2-3.4,0.8-5c0.6-1.6,1.3-2.9,2.4-4.1c1-1.2,2.2-2.2,3.6-2.9
		c1.4-0.8,3-1.3,4.6-1.5v5.3c-2,0.7-3.4,1.7-4.2,3.1c-0.7,1.4-1.1,3-1.1,5h5.3v12.4H524.5z"/>
	<path fill="#FFFFFF" d="M542.4,270.6V260h46.9v10.6h-17.2v46.7h-12.6v-46.7H542.4z"/>
	<path fill="#FFFFFF" d="M606.1,260v21.6h0.2c1.4-2.4,3.3-4.2,5.5-5.3c2.2-1.1,4.4-1.6,6.6-1.6c3,0,5.5,0.4,7.5,1.2
		c2,0.8,3.5,2,4.6,3.4c1.1,1.5,1.9,3.3,2.4,5.4c0.5,2.1,0.7,4.5,0.7,7v25.5h-11.4v-23.4c0-3.4-0.5-6-1.6-7.7c-1.1-1.7-3-2.5-5.7-2.5
		c-3.1,0-5.3,0.9-6.7,2.8c-1.4,1.8-2.1,4.9-2.1,9.1v21.7h-11.4V260H606.1z"/>
	<path fill="#FFFFFF" d="M654.5,307.3c1.7,1.7,4.2,2.5,7.4,2.5c2.3,0,4.3-0.6,5.9-1.7c1.7-1.1,2.7-2.4,3-3.6h10
		c-1.6,5-4.1,8.5-7.4,10.7c-3.3,2.1-7.3,3.2-12,3.2c-3.3,0-6.2-0.5-8.8-1.6c-2.6-1-4.8-2.5-6.7-4.5c-1.8-1.9-3.2-4.2-4.2-6.9
		c-1-2.7-1.5-5.6-1.5-8.8c0-3.1,0.5-6,1.5-8.7c1-2.7,2.5-5,4.3-6.9c1.9-2,4.1-3.5,6.7-4.6c2.6-1.1,5.5-1.7,8.6-1.7
		c3.5,0,6.6,0.7,9.2,2c2.6,1.4,4.8,3.2,6.5,5.5c1.7,2.3,2.9,4.9,3.6,7.9c0.7,2.9,1,6,0.8,9.2h-29.9
		C651.8,303,652.8,305.6,654.5,307.3z M667.3,285.5c-1.4-1.5-3.4-2.2-6.2-2.2c-1.8,0-3.3,0.3-4.5,0.9c-1.2,0.6-2.2,1.4-2.9,2.3
		c-0.7,0.9-1.2,1.9-1.5,2.9c-0.3,1-0.5,1.9-0.5,2.7h18.5C669.7,289.2,668.7,287,667.3,285.5z"/>
	<path fill="#FFFFFF" d="M729.6,260l13.4,39.4h0.2l12.7-39.4h17.7v57.3h-11.8v-40.6h-0.2l-14,40.6h-9.7l-14-40.2h-0.2v40.2h-11.8
		V260H729.6z"/>
	<path fill="#FFFFFF" d="M782.9,288.5c0.2-2.7,0.8-4.9,2-6.7c1.2-1.8,2.7-3.2,4.5-4.3c1.8-1.1,3.9-1.8,6.1-2.3
		c2.3-0.5,4.6-0.7,6.9-0.7c2.1,0,4.2,0.1,6.3,0.4c2.1,0.3,4.1,0.9,5.9,1.7c1.8,0.9,3.2,2,4.3,3.6c1.1,1.5,1.7,3.5,1.7,6.1V308
		c0,1.9,0.1,3.7,0.3,5.4c0.2,1.7,0.6,3,1.1,3.9h-11.6c-0.2-0.6-0.4-1.3-0.5-2c-0.1-0.7-0.2-1.4-0.3-2c-1.8,1.9-4,3.2-6.4,3.9
		s-5,1.1-7.5,1.1c-2,0-3.8-0.2-5.5-0.7c-1.7-0.5-3.2-1.2-4.5-2.2c-1.3-1-2.3-2.3-3-3.9c-0.7-1.6-1.1-3.4-1.1-5.5
		c0-2.4,0.4-4.3,1.2-5.8c0.8-1.5,1.9-2.7,3.2-3.6c1.3-0.9,2.8-1.6,4.5-2c1.7-0.5,3.4-0.8,5.1-1.1c1.7-0.3,3.4-0.5,5.1-0.6
		c1.7-0.2,3.1-0.4,4.4-0.7s2.3-0.8,3-1.4c0.7-0.6,1.1-1.5,1-2.7c0-1.2-0.2-2.2-0.6-2.9c-0.4-0.7-0.9-1.3-1.6-1.7
		c-0.7-0.4-1.4-0.7-2.3-0.8c-0.9-0.1-1.8-0.2-2.8-0.2c-2.2,0-4,0.5-5.3,1.4c-1.3,1-2,2.6-2.2,4.8H782.9z M809.2,297
		c-0.5,0.4-1.1,0.8-1.8,1c-0.7,0.2-1.5,0.4-2.3,0.6c-0.8,0.2-1.7,0.3-2.6,0.4c-0.9,0.1-1.8,0.2-2.7,0.4c-0.9,0.2-1.7,0.4-2.5,0.6
		c-0.8,0.3-1.6,0.6-2.2,1.1c-0.6,0.5-1.1,1-1.5,1.7c-0.4,0.7-0.6,1.6-0.6,2.6c0,1,0.2,1.9,0.6,2.6c0.4,0.7,0.9,1.2,1.5,1.6
		c0.6,0.4,1.4,0.7,2.2,0.8c0.9,0.2,1.7,0.2,2.6,0.2c2.2,0,4-0.4,5.2-1.1s2.1-1.6,2.7-2.7s0.9-2.1,1.1-3.2c0.1-1.1,0.2-1.9,0.2-2.6
		V297z"/>
	<path fill="#FFFFFF" d="M840.2,275.8v5.8h0.2c1.4-2.4,3.3-4.2,5.6-5.3c2.3-1.1,4.7-1.6,7.1-1.6c3,0,5.5,0.4,7.5,1.2
		c2,0.8,3.5,2,4.6,3.4c1.1,1.5,1.9,3.3,2.4,5.4c0.5,2.1,0.7,4.5,0.7,7v25.5h-11.4v-23.4c0-3.4-0.5-6-1.6-7.7c-1.1-1.7-3-2.5-5.7-2.5
		c-3.1,0-5.3,0.9-6.7,2.8c-1.4,1.8-2.1,4.9-2.1,9.1v21.7h-11.4v-41.5H840.2z"/>
	<path fill="#FFFFFF" d="M899.6,269.4V260H911v9.4H899.6z M911,275.8v41.5h-11.4v-41.5H911z"/>
	<path fill="#FFFFFF" d="M930.8,275.8v5.8h0.2c1.4-2.4,3.3-4.2,5.6-5.3c2.3-1.1,4.7-1.6,7.1-1.6c3,0,5.5,0.4,7.5,1.2
		c2,0.8,3.5,2,4.6,3.4c1.1,1.5,1.9,3.3,2.4,5.4c0.5,2.1,0.7,4.5,0.7,7v25.5h-11.4v-23.4c0-3.4-0.5-6-1.6-7.7c-1.1-1.7-3-2.5-5.7-2.5
		c-3.1,0-5.3,0.9-6.7,2.8c-1.4,1.8-2.1,4.9-2.1,9.1v21.7H920v-41.5H930.8z"/>
	<path fill="#FFFFFF" d="M1012.6,275.8v7.6h-8.3v20.5c0,1.9,0.3,3.2,1,3.8c0.6,0.6,1.9,1,3.9,1c0.6,0,1.3,0,1.8-0.1
		c0.6-0.1,1.1-0.1,1.7-0.2v8.8c-1,0.2-2,0.3-3.2,0.3c-1.2,0.1-2.3,0.1-3.4,0.1c-1.8,0-3.4-0.1-5-0.4c-1.6-0.2-3-0.7-4.2-1.4
		c-1.2-0.7-2.2-1.7-2.8-3c-0.7-1.3-1-3-1-5.1v-24.5H986v-7.6h6.9v-12.4h11.4v12.4H1012.6z"/>
	<path fill="#FFFFFF" d="M1029.5,260v21.6h0.2c1.4-2.4,3.3-4.2,5.5-5.3c2.2-1.1,4.4-1.6,6.6-1.6c3,0,5.5,0.4,7.5,1.2
		c2,0.8,3.5,2,4.6,3.4c1.1,1.5,1.9,3.3,2.4,5.4c0.5,2.1,0.7,4.5,0.7,7v25.5h-11.4v-23.4c0-3.4-0.5-6-1.6-7.7c-1.1-1.7-3-2.5-5.7-2.5
		c-3.1,0-5.3,0.9-6.7,2.8c-1.4,1.8-2.1,4.9-2.1,9.1v21.7h-11.4V260H1029.5z"/>
	<path fill="#FFFFFF" d="M1077.8,307.3c1.7,1.7,4.2,2.5,7.4,2.5c2.3,0,4.3-0.6,5.9-1.7c1.7-1.1,2.7-2.4,3-3.6h10
		c-1.6,5-4.1,8.5-7.4,10.7c-3.3,2.1-7.3,3.2-12,3.2c-3.3,0-6.2-0.5-8.8-1.6c-2.6-1-4.8-2.5-6.7-4.5c-1.8-1.9-3.2-4.2-4.2-6.9
		c-1-2.7-1.5-5.6-1.5-8.8c0-3.1,0.5-6,1.5-8.7c1-2.7,2.5-5,4.3-6.9c1.9-2,4.1-3.5,6.7-4.6c2.6-1.1,5.5-1.7,8.6-1.7
		c3.5,0,6.6,0.7,9.2,2c2.6,1.4,4.8,3.2,6.5,5.5c1.7,2.3,2.9,4.9,3.7,7.9c0.7,2.9,1,6,0.8,9.2H1075
		C1075.2,303,1076.1,305.6,1077.8,307.3z M1090.7,285.5c-1.4-1.5-3.4-2.2-6.2-2.2c-1.8,0-3.3,0.3-4.5,0.9c-1.2,0.6-2.2,1.4-2.9,2.3
		c-0.7,0.9-1.2,1.9-1.5,2.9c-0.3,1-0.5,1.9-0.5,2.7h18.5C1093,289.2,1092.1,287,1090.7,285.5z"/>
	<path fill="#FFFFFF" d="M1147.8,260v57.3h-12.6V260H1147.8z"/>
	<path fill="#FFFFFF" d="M1168.5,275.8v7.7h0.2c0.5-1.3,1.3-2.5,2.2-3.6c0.9-1.1,2-2,3.1-2.8c1.2-0.8,2.4-1.4,3.8-1.8
		c1.3-0.4,2.7-0.6,4.2-0.6c0.7,0,1.6,0.1,2.5,0.4v10.6c-0.5-0.1-1.2-0.2-1.9-0.3c-0.8-0.1-1.5-0.1-2.2-0.1c-2.1,0-3.9,0.3-5.3,1
		c-1.4,0.7-2.6,1.6-3.5,2.8c-0.9,1.2-1.5,2.6-1.9,4.2c-0.4,1.6-0.6,3.3-0.6,5.2v18.7h-11.4v-41.5H1168.5z"/>
	<path fill="#FFFFFF" d="M1187.7,287.5c1-2.7,2.5-5,4.3-6.9c1.9-1.9,4.1-3.4,6.7-4.4c2.6-1,5.6-1.6,8.8-1.6c3.3,0,6.2,0.5,8.9,1.6
		c2.6,1,4.9,2.5,6.8,4.4c1.9,1.9,3.3,4.2,4.3,6.9c1,2.7,1.5,5.7,1.5,9c0,3.3-0.5,6.3-1.5,9c-1,2.7-2.5,5-4.3,6.9
		c-1.9,1.9-4.1,3.4-6.8,4.4c-2.6,1-5.6,1.5-8.9,1.5c-3.3,0-6.2-0.5-8.8-1.5c-2.6-1-4.9-2.5-6.7-4.4c-1.9-1.9-3.3-4.2-4.3-6.9
		c-1-2.7-1.5-5.7-1.5-9C1186.1,293.2,1186.6,290.2,1187.7,287.5z M1198,301.4c0.3,1.6,0.9,3,1.6,4.3c0.8,1.3,1.8,2.3,3.1,3
		c1.3,0.8,2.9,1.1,4.8,1.1c1.9,0,3.5-0.4,4.9-1.1c1.3-0.7,2.4-1.8,3.1-3c0.8-1.3,1.3-2.7,1.6-4.3c0.3-1.6,0.5-3.2,0.5-4.9
		c0-1.7-0.2-3.3-0.5-4.9c-0.3-1.6-0.9-3-1.6-4.3c-0.8-1.2-1.8-2.2-3.1-3c-1.3-0.8-2.9-1.2-4.9-1.2c-1.9,0-3.5,0.4-4.8,1.2
		c-1.3,0.8-2.3,1.8-3.1,3c-0.8,1.2-1.3,2.6-1.6,4.3c-0.3,1.6-0.5,3.2-0.5,4.9C1197.5,298.2,1197.7,299.8,1198,301.4z"/>
	<path fill="#FFFFFF" d="M1247.2,275.8v5.8h0.2c1.4-2.4,3.3-4.2,5.6-5.3c2.3-1.1,4.7-1.6,7.1-1.6c3,0,5.5,0.4,7.5,1.2
		c2,0.8,3.5,2,4.6,3.4c1.1,1.5,1.9,3.3,2.4,5.4c0.5,2.1,0.7,4.5,0.7,7v25.5h-11.4v-23.4c0-3.4-0.5-6-1.6-7.7c-1.1-1.7-3-2.5-5.7-2.5
		c-3.1,0-5.3,0.9-6.7,2.8c-1.4,1.8-2.1,4.9-2.1,9.1v21.7h-11.4v-41.5H1247.2z"/>
	<path fill="#FFFFFF" d="M1325.2,260l13.4,39.4h0.2l12.7-39.4h17.7v57.3h-11.8v-40.6h-0.2l-14,40.6h-9.7l-14-40.2h-0.2v40.2h-11.8
		V260H1325.2z"/>
	<path fill="#FFFFFF" d="M1378.6,288.5c0.2-2.7,0.8-4.9,2-6.7c1.2-1.8,2.7-3.2,4.5-4.3c1.8-1.1,3.9-1.8,6.1-2.3
		c2.3-0.5,4.6-0.7,6.9-0.7c2.1,0,4.2,0.1,6.3,0.4c2.1,0.3,4.1,0.9,5.9,1.7c1.8,0.9,3.2,2,4.3,3.6c1.1,1.5,1.7,3.5,1.7,6.1V308
		c0,1.9,0.1,3.7,0.3,5.4c0.2,1.7,0.6,3,1.1,3.9h-11.6c-0.2-0.6-0.4-1.3-0.5-2c-0.1-0.7-0.2-1.4-0.3-2c-1.8,1.9-4,3.2-6.4,3.9
		c-2.5,0.7-5,1.1-7.5,1.1c-2,0-3.8-0.2-5.5-0.7c-1.7-0.5-3.2-1.2-4.5-2.2c-1.3-1-2.3-2.3-3-3.9c-0.7-1.6-1.1-3.4-1.1-5.5
		c0-2.4,0.4-4.3,1.2-5.8c0.8-1.5,1.9-2.7,3.2-3.6c1.3-0.9,2.8-1.6,4.5-2c1.7-0.5,3.4-0.8,5.1-1.1c1.7-0.3,3.4-0.5,5.1-0.6
		c1.7-0.2,3.1-0.4,4.4-0.7c1.3-0.3,2.3-0.8,3-1.4c0.7-0.6,1.1-1.5,1-2.7c0-1.2-0.2-2.2-0.6-2.9c-0.4-0.7-0.9-1.3-1.6-1.7
		c-0.7-0.4-1.4-0.7-2.3-0.8c-0.9-0.1-1.8-0.2-2.8-0.2c-2.2,0-4,0.5-5.3,1.4c-1.3,1-2,2.6-2.2,4.8H1378.6z M1404.9,297
		c-0.5,0.4-1.1,0.8-1.8,1c-0.7,0.2-1.5,0.4-2.3,0.6c-0.8,0.2-1.7,0.3-2.6,0.4c-0.9,0.1-1.8,0.2-2.7,0.4c-0.9,0.2-1.7,0.4-2.5,0.6
		c-0.8,0.3-1.6,0.6-2.2,1.1c-0.6,0.5-1.1,1-1.5,1.7c-0.4,0.7-0.6,1.6-0.6,2.6c0,1,0.2,1.9,0.6,2.6c0.4,0.7,0.9,1.2,1.5,1.6
		c0.6,0.4,1.4,0.7,2.2,0.8c0.9,0.2,1.7,0.2,2.6,0.2c2.2,0,4-0.4,5.2-1.1c1.2-0.7,2.1-1.6,2.7-2.7c0.6-1,0.9-2.1,1.1-3.2
		c0.1-1.1,0.2-1.9,0.2-2.6V297z"/>
	<path fill="#FFFFFF" d="M1434.7,306.9c0.5,0.9,1.2,1.6,2,2.2c0.8,0.6,1.7,1,2.8,1.2c1,0.3,2.1,0.4,3.2,0.4c0.8,0,1.6-0.1,2.5-0.3
		c0.9-0.2,1.7-0.5,2.4-0.9c0.7-0.4,1.3-0.9,1.8-1.6c0.5-0.7,0.7-1.5,0.7-2.5c0-1.7-1.1-3-3.4-3.8c-2.3-0.9-5.4-1.7-9.5-2.6
		c-1.7-0.4-3.3-0.8-4.9-1.3c-1.6-0.5-3-1.2-4.2-2c-1.2-0.8-2.2-1.9-3-3.1c-0.8-1.3-1.1-2.8-1.1-4.6c0-2.7,0.5-4.9,1.6-6.6
		c1-1.7,2.4-3.1,4.1-4.1c1.7-1,3.6-1.7,5.8-2.1c2.1-0.4,4.3-0.6,6.6-0.6s4.4,0.2,6.5,0.6c2.1,0.4,4,1.2,5.7,2.2c1.7,1,3,2.4,4.1,4.1
		c1.1,1.7,1.8,3.8,2,6.4h-10.8c-0.2-2.2-1-3.7-2.5-4.5c-1.5-0.8-3.3-1.2-5.3-1.2c-0.6,0-1.3,0-2.1,0.1c-0.7,0.1-1.4,0.3-2,0.5
		c-0.6,0.3-1.1,0.7-1.6,1.2c-0.4,0.5-0.6,1.2-0.6,2c0,1,0.4,1.8,1.1,2.5c0.7,0.6,1.7,1.2,2.9,1.6c1.2,0.4,2.6,0.8,4.1,1.1
		c1.6,0.3,3.1,0.7,4.7,1c1.7,0.4,3.3,0.8,4.9,1.4c1.6,0.5,3,1.2,4.2,2.1c1.2,0.9,2.2,2,3,3.3c0.7,1.3,1.1,2.9,1.1,4.9
		c0,2.7-0.5,5-1.6,6.9c-1.1,1.8-2.5,3.3-4.3,4.5c-1.8,1.1-3.8,1.9-6.1,2.4c-2.3,0.5-4.6,0.7-6.9,0.7c-2.4,0-4.8-0.2-7.1-0.7
		c-2.3-0.5-4.3-1.3-6.1-2.4c-1.8-1.1-3.3-2.6-4.4-4.5c-1.2-1.8-1.8-4.2-1.9-6.9h10.8C1433.9,305,1434.2,306.1,1434.7,306.9z"/>
	<path fill="#FFFFFF" d="M1480.6,260v30.7l14.4-14.9h13.5l-15.6,15.2l17.4,26.2h-13.8l-11.4-18.5l-4.4,4.3v14.3h-11.4V260H1480.6z"
		/>
	<path fill="#FFFFFF" d="M1526.7,260v12.3c0.1,1.8-0.2,3.4-0.8,5c-0.6,1.6-1.4,2.9-2.4,4.1c-1,1.2-2.2,2.2-3.6,2.9
		c-1.4,0.8-3,1.3-4.6,1.5v-5.3c2-0.7,3.4-1.7,4.2-3.1c0.7-1.4,1.1-3,1.1-5h-5.3V260H1526.7z"/>
</g>
<path fill="#8DC043" d="M1391,451.4H312.7c-7.9,0-14.1-6.2-14.1-14.1v-72.1c0-7.9,6.2-14.1,14.1-14.1h1078.7
	c7.9,0,14.1,6.2,14.1,14.1v72.1C1405.1,445.3,1398.9,451.4,1391,451.4z"/>
<path fill="#8DC043" d="M961.1,567.9H188.8c-7.9,0-14.1-6.2-14.1-14.1v-72.1c0-7.9,6.2-14.1,14.1-14.1h772.3
	c7.9,0,14.1,6.2,14.1,14.1v72.1C975.2,561.8,968.6,567.9,961.1,567.9z"/>
<g enable-background="new    ">
	<path fill="#FFFFFF" d="M345.9,388.4v7.6h-8.3v20.5c0,1.9,0.3,3.2,1,3.8c0.6,0.6,1.9,1,3.9,1c0.6,0,1.3,0,1.8-0.1
		c0.6-0.1,1.1-0.1,1.7-0.2v8.8c-1,0.2-2,0.3-3.2,0.3c-1.2,0.1-2.3,0.1-3.4,0.1c-1.8,0-3.4-0.1-5-0.4c-1.6-0.2-3-0.7-4.2-1.4
		c-1.2-0.7-2.2-1.7-2.8-3c-0.7-1.3-1-3-1-5.1V396h-6.9v-7.6h6.9v-12.4h11.4v12.4H345.9z"/>
	<path fill="#FFFFFF" d="M362.8,372.6v21.6h0.2c1.4-2.4,3.3-4.2,5.5-5.3c2.2-1.1,4.4-1.6,6.6-1.6c3,0,5.5,0.4,7.5,1.2
		c2,0.8,3.5,2,4.6,3.4c1.1,1.5,1.9,3.3,2.4,5.4c0.5,2.1,0.7,4.5,0.7,7v25.5h-11.4v-23.4c0-3.4-0.5-6-1.6-7.7c-1.1-1.7-3-2.5-5.7-2.5
		c-3.1,0-5.3,0.9-6.7,2.8c-1.4,1.8-2.1,4.9-2.1,9.1v21.7h-11.4v-57.3H362.8z"/>
	<path fill="#FFFFFF" d="M399.3,382v-9.4h11.4v9.4H399.3z M410.7,388.4v41.5h-11.4v-41.5H410.7z"/>
	<path fill="#FFFFFF" d="M429.2,419.5c0.5,0.9,1.2,1.6,2,2.2c0.8,0.6,1.7,1,2.8,1.2c1,0.3,2.1,0.4,3.2,0.4c0.8,0,1.6-0.1,2.5-0.3
		c0.9-0.2,1.7-0.5,2.4-0.9c0.7-0.4,1.3-0.9,1.8-1.6c0.5-0.7,0.7-1.5,0.7-2.5c0-1.7-1.1-3-3.4-3.8c-2.3-0.9-5.4-1.7-9.5-2.6
		c-1.7-0.4-3.3-0.8-4.9-1.3c-1.6-0.5-3-1.2-4.2-2c-1.2-0.8-2.2-1.9-3-3.1c-0.7-1.3-1.1-2.8-1.1-4.6c0-2.7,0.5-4.9,1.6-6.6
		c1-1.7,2.4-3.1,4.1-4.1c1.7-1,3.6-1.7,5.8-2.1c2.1-0.4,4.3-0.6,6.6-0.6c2.2,0,4.4,0.2,6.5,0.6c2.1,0.4,4,1.2,5.7,2.2
		c1.7,1,3,2.4,4.1,4.1c1.1,1.7,1.8,3.8,2,6.4h-10.8c-0.2-2.2-1-3.7-2.5-4.5c-1.5-0.8-3.3-1.2-5.3-1.2c-0.6,0-1.3,0-2.1,0.1
		c-0.7,0.1-1.4,0.3-2,0.5c-0.6,0.3-1.1,0.7-1.6,1.2c-0.4,0.5-0.6,1.2-0.6,2c0,1,0.4,1.8,1.1,2.5c0.7,0.6,1.7,1.2,2.9,1.6
		c1.2,0.4,2.6,0.8,4.1,1.1c1.6,0.3,3.1,0.7,4.7,1c1.7,0.4,3.3,0.8,4.9,1.4c1.6,0.5,3,1.2,4.2,2.1c1.2,0.9,2.2,2,3,3.3
		c0.7,1.3,1.1,2.9,1.1,4.9c0,2.7-0.5,5-1.6,6.9c-1.1,1.8-2.5,3.3-4.3,4.5c-1.8,1.1-3.8,1.9-6.1,2.4c-2.3,0.5-4.6,0.7-6.9,0.7
		c-2.4,0-4.8-0.2-7.1-0.7c-2.3-0.5-4.3-1.3-6.1-2.4c-1.8-1.1-3.3-2.6-4.4-4.5c-1.2-1.8-1.8-4.2-1.9-6.9h10.8
		C428.5,417.6,428.7,418.7,429.2,419.5z"/>
	<path fill="#FFFFFF" d="M496.4,372.6v21.6h0.2c1.4-2.4,3.3-4.2,5.5-5.3c2.2-1.1,4.4-1.6,6.6-1.6c3,0,5.5,0.4,7.5,1.2
		c2,0.8,3.5,2,4.6,3.4c1.1,1.5,1.9,3.3,2.4,5.4c0.5,2.1,0.7,4.5,0.7,7v25.5h-11.4v-23.4c0-3.4-0.5-6-1.6-7.7c-1.1-1.7-3-2.5-5.7-2.5
		c-3.1,0-5.3,0.9-6.7,2.8c-1.4,1.8-2.1,4.9-2.1,9.1v21.7H485v-57.3H496.4z"/>
	<path fill="#FFFFFF" d="M544.8,419.9c1.7,1.7,4.2,2.5,7.4,2.5c2.3,0,4.3-0.6,5.9-1.7c1.7-1.1,2.7-2.4,3-3.6h10
		c-1.6,5-4.1,8.5-7.4,10.7c-3.3,2.1-7.3,3.2-12,3.2c-3.3,0-6.2-0.5-8.8-1.6c-2.6-1-4.8-2.5-6.7-4.5c-1.8-1.9-3.2-4.2-4.2-6.9
		c-1-2.7-1.5-5.6-1.5-8.8c0-3.1,0.5-6,1.5-8.7c1-2.7,2.5-5,4.3-6.9c1.9-2,4.1-3.5,6.7-4.6c2.6-1.1,5.5-1.7,8.6-1.7
		c3.5,0,6.6,0.7,9.2,2c2.6,1.4,4.8,3.2,6.5,5.5c1.7,2.3,2.9,4.9,3.6,7.9c0.7,2.9,1,6,0.8,9.2H542
		C542.1,415.6,543.1,418.2,544.8,419.9z M557.7,398.1c-1.4-1.5-3.4-2.2-6.2-2.2c-1.8,0-3.3,0.3-4.5,0.9c-1.2,0.6-2.2,1.4-2.9,2.3
		c-0.7,0.9-1.2,1.9-1.5,2.9c-0.3,1-0.5,1.9-0.5,2.7h18.5C560,401.8,559,399.6,557.7,398.1z"/>
	<path fill="#FFFFFF" d="M589.5,388.4v7.7h0.2c0.5-1.3,1.3-2.5,2.2-3.6c0.9-1.1,2-2,3.1-2.8c1.2-0.8,2.4-1.4,3.8-1.8
		c1.3-0.4,2.7-0.6,4.2-0.6c0.7,0,1.6,0.1,2.5,0.4v10.6c-0.5-0.1-1.2-0.2-1.9-0.3c-0.7-0.1-1.5-0.1-2.2-0.1c-2.1,0-3.9,0.3-5.3,1
		c-1.4,0.7-2.6,1.6-3.5,2.8c-0.9,1.2-1.5,2.6-1.9,4.2c-0.4,1.6-0.6,3.3-0.6,5.2v18.7h-11.4v-41.5H589.5z"/>
	<path fill="#FFFFFF" d="M608.6,400.1c1-2.7,2.5-5,4.3-6.9c1.9-1.9,4.1-3.4,6.7-4.4c2.6-1,5.6-1.6,8.8-1.6c3.3,0,6.2,0.5,8.9,1.6
		c2.6,1,4.9,2.5,6.8,4.4c1.9,1.9,3.3,4.2,4.3,6.9c1,2.7,1.5,5.7,1.5,9c0,3.3-0.5,6.3-1.5,9c-1,2.7-2.5,5-4.3,6.9
		c-1.9,1.9-4.1,3.4-6.8,4.4c-2.6,1-5.6,1.5-8.9,1.5c-3.3,0-6.2-0.5-8.8-1.5c-2.6-1-4.9-2.5-6.7-4.4c-1.9-1.9-3.3-4.2-4.3-6.9
		c-1-2.7-1.5-5.7-1.5-9C607.1,405.8,607.6,402.8,608.6,400.1z M619,414c0.3,1.6,0.9,3,1.6,4.3c0.8,1.3,1.8,2.3,3.1,3
		c1.3,0.8,2.9,1.1,4.8,1.1c1.9,0,3.5-0.4,4.9-1.1c1.3-0.7,2.4-1.8,3.1-3c0.8-1.3,1.3-2.7,1.6-4.3c0.3-1.6,0.5-3.2,0.5-4.9
		c0-1.7-0.2-3.3-0.5-4.9c-0.3-1.6-0.9-3-1.6-4.3c-0.8-1.2-1.8-2.2-3.1-3c-1.3-0.8-2.9-1.2-4.9-1.2c-1.9,0-3.5,0.4-4.8,1.2
		c-1.3,0.8-2.3,1.8-3.1,3c-0.8,1.2-1.3,2.6-1.6,4.3c-0.3,1.6-0.5,3.2-0.5,4.9C618.5,410.8,618.7,412.4,619,414z"/>
	<path fill="#FFFFFF" d="M680,400.1c1-2.7,2.5-5,4.3-6.9c1.9-1.9,4.1-3.4,6.7-4.4c2.6-1,5.6-1.6,8.8-1.6c3.3,0,6.2,0.5,8.9,1.6
		c2.6,1,4.9,2.5,6.8,4.4c1.9,1.9,3.3,4.2,4.3,6.9c1,2.7,1.5,5.7,1.5,9c0,3.3-0.5,6.3-1.5,9c-1,2.7-2.5,5-4.3,6.9
		c-1.9,1.9-4.1,3.4-6.8,4.4c-2.6,1-5.6,1.5-8.9,1.5c-3.3,0-6.2-0.5-8.8-1.5c-2.6-1-4.9-2.5-6.7-4.4c-1.9-1.9-3.3-4.2-4.3-6.9
		c-1-2.7-1.5-5.7-1.5-9C678.4,405.8,678.9,402.8,680,400.1z M690.3,414c0.3,1.6,0.9,3,1.6,4.3c0.8,1.3,1.8,2.3,3.1,3
		c1.3,0.8,2.9,1.1,4.8,1.1c1.9,0,3.5-0.4,4.9-1.1c1.3-0.7,2.4-1.8,3.1-3c0.8-1.3,1.3-2.7,1.6-4.3c0.3-1.6,0.5-3.2,0.5-4.9
		c0-1.7-0.2-3.3-0.5-4.9c-0.3-1.6-0.9-3-1.6-4.3c-0.8-1.2-1.8-2.2-3.1-3c-1.3-0.8-2.9-1.2-4.9-1.2c-1.9,0-3.5,0.4-4.8,1.2
		c-1.3,0.8-2.3,1.8-3.1,3c-0.8,1.2-1.3,2.6-1.6,4.3c-0.3,1.6-0.5,3.2-0.5,4.9C689.8,410.8,690,412.4,690.3,414z"/>
	<path fill="#FFFFFF" d="M724.4,396v-7.6h6.8v-3.2c0-3.7,1.1-6.7,3.4-9.1c2.3-2.4,5.8-3.5,10.4-3.5c1,0,2,0,3,0.1c1,0.1,2,0.1,3,0.2
		v8.5c-1.3-0.2-2.7-0.2-4.2-0.2c-1.6,0-2.7,0.4-3.3,1.1c-0.7,0.7-1,1.9-1,3.6v2.5h7.9v7.6h-7.9v33.9h-11.4V396H724.4z"/>
	<path fill="#FFFFFF" d="M777.3,401.1c0.2-2.7,0.8-4.9,2-6.7c1.2-1.8,2.7-3.2,4.5-4.3c1.8-1.1,3.9-1.8,6.1-2.3
		c2.3-0.5,4.6-0.7,6.9-0.7c2.1,0,4.2,0.1,6.3,0.4c2.1,0.3,4.1,0.9,5.9,1.7c1.8,0.9,3.2,2,4.3,3.6c1.1,1.5,1.7,3.5,1.7,6.1v21.6
		c0,1.9,0.1,3.7,0.3,5.4c0.2,1.7,0.6,3,1.1,3.9h-11.6c-0.2-0.6-0.4-1.3-0.5-2c-0.1-0.7-0.2-1.4-0.3-2c-1.8,1.9-4,3.2-6.4,3.9
		c-2.5,0.7-5,1.1-7.5,1.1c-2,0-3.8-0.2-5.5-0.7c-1.7-0.5-3.2-1.2-4.5-2.2c-1.3-1-2.3-2.3-3-3.9c-0.7-1.6-1.1-3.4-1.1-5.5
		c0-2.4,0.4-4.3,1.2-5.8c0.8-1.5,1.9-2.7,3.2-3.6c1.3-0.9,2.8-1.6,4.5-2c1.7-0.5,3.4-0.8,5.1-1.1c1.7-0.3,3.4-0.5,5.1-0.6
		c1.7-0.2,3.1-0.4,4.4-0.7c1.3-0.3,2.3-0.8,3-1.4c0.7-0.6,1.1-1.5,1-2.7c0-1.2-0.2-2.2-0.6-2.9c-0.4-0.7-0.9-1.3-1.6-1.7
		c-0.7-0.4-1.4-0.7-2.3-0.8c-0.9-0.1-1.8-0.2-2.8-0.2c-2.2,0-4,0.5-5.3,1.4c-1.3,1-2,2.6-2.2,4.8H777.3z M803.6,409.5
		c-0.5,0.4-1.1,0.8-1.8,1c-0.7,0.2-1.5,0.4-2.3,0.6c-0.8,0.2-1.7,0.3-2.6,0.4c-0.9,0.1-1.8,0.2-2.7,0.4c-0.9,0.2-1.7,0.4-2.5,0.6
		c-0.8,0.3-1.6,0.6-2.2,1.1c-0.6,0.5-1.1,1-1.5,1.7c-0.4,0.7-0.6,1.6-0.6,2.6c0,1,0.2,1.9,0.6,2.6c0.4,0.7,0.9,1.2,1.5,1.6
		c0.6,0.4,1.4,0.7,2.2,0.8c0.9,0.2,1.7,0.2,2.6,0.2c2.2,0,4-0.4,5.2-1.1c1.2-0.7,2.1-1.6,2.7-2.7s0.9-2.1,1.1-3.2
		c0.1-1.1,0.2-1.9,0.2-2.6V409.5z"/>
	<path fill="#FFFFFF" d="M856.9,388.4v5.3h0.2c1.4-2.2,3.2-3.9,5.3-4.9c2.1-1,4.5-1.5,7.1-1.5c3.3,0,6.1,0.6,8.4,1.8
		c2.4,1.2,4.3,2.9,5.9,4.9c1.6,2,2.7,4.4,3.4,7.1c0.7,2.7,1.1,5.5,1.1,8.5c0,2.8-0.4,5.5-1.1,8c-0.7,2.6-1.9,4.8-3.4,6.8
		c-1.5,2-3.4,3.6-5.7,4.7c-2.3,1.2-4.9,1.8-8,1.8c-2.6,0-4.9-0.5-7.1-1.6s-3.9-2.6-5.3-4.6h-0.2v19.7h-11.4v-56H856.9z M871.7,421.3
		c1.3-0.7,2.3-1.7,3-2.9c0.8-1.2,1.3-2.6,1.6-4.2c0.3-1.6,0.5-3.2,0.5-4.9c0-1.7-0.2-3.3-0.5-4.9c-0.3-1.6-0.9-3-1.7-4.3
		c-0.8-1.3-1.8-2.3-3.1-3c-1.3-0.8-2.8-1.2-4.6-1.2c-1.9,0-3.4,0.4-4.7,1.2c-1.3,0.8-2.3,1.8-3,3c-0.8,1.2-1.3,2.6-1.6,4.3
		c-0.3,1.6-0.5,3.3-0.5,5c0,1.7,0.2,3.3,0.5,4.9c0.3,1.6,0.9,3,1.7,4.2c0.8,1.2,1.8,2.2,3.1,2.9c1.3,0.8,2.8,1.1,4.7,1.1
		C868.9,422.4,870.5,422,871.7,421.3z"/>
	<path fill="#FFFFFF" d="M905.9,388.4v7.7h0.2c0.5-1.3,1.3-2.5,2.2-3.6c0.9-1.1,2-2,3.1-2.8c1.2-0.8,2.4-1.4,3.8-1.8
		c1.3-0.4,2.7-0.6,4.2-0.6c0.7,0,1.6,0.1,2.5,0.4v10.6c-0.5-0.1-1.2-0.2-1.9-0.3c-0.8-0.1-1.5-0.1-2.2-0.1c-2.1,0-3.9,0.3-5.3,1
		c-1.4,0.7-2.6,1.6-3.5,2.8c-0.9,1.2-1.5,2.6-1.9,4.2s-0.6,3.3-0.6,5.2v18.7h-11.4v-41.5H905.9z"/>
	<path fill="#FFFFFF" d="M937,419.9c1.7,1.7,4.2,2.5,7.4,2.5c2.3,0,4.3-0.6,5.9-1.7c1.7-1.1,2.7-2.4,3-3.6h10
		c-1.6,5-4.1,8.5-7.4,10.7c-3.3,2.1-7.3,3.2-12,3.2c-3.3,0-6.2-0.5-8.8-1.6c-2.6-1-4.8-2.5-6.7-4.5c-1.8-1.9-3.2-4.2-4.2-6.9
		c-1-2.7-1.5-5.6-1.5-8.8c0-3.1,0.5-6,1.5-8.7c1-2.7,2.5-5,4.3-6.9c1.9-2,4.1-3.5,6.7-4.6c2.6-1.1,5.5-1.7,8.6-1.7
		c3.5,0,6.6,0.7,9.2,2c2.6,1.4,4.8,3.2,6.5,5.5c1.7,2.3,2.9,4.9,3.7,7.9c0.7,2.9,1,6,0.8,9.2h-29.9
		C934.4,415.6,935.3,418.2,937,419.9z M949.9,398.1c-1.4-1.5-3.4-2.2-6.2-2.2c-1.8,0-3.3,0.3-4.5,0.9c-1.2,0.6-2.2,1.4-2.9,2.3
		c-0.7,0.9-1.2,1.9-1.5,2.9c-0.3,1-0.5,1.9-0.5,2.7h18.5C952.2,401.8,951.3,399.6,949.9,398.1z"/>
	<path fill="#FFFFFF" d="M981.2,429.8L967,388.4h12l8.7,28.3h0.2l8.7-28.3h11.3l-14,41.5H981.2z"/>
	<path fill="#FFFFFF" d="M1012.9,382v-9.4h11.4v9.4H1012.9z M1024.3,388.4v41.5h-11.4v-41.5H1024.3z"/>
	<path fill="#FFFFFF" d="M1033.5,400.1c1-2.7,2.5-5,4.3-6.9c1.9-1.9,4.1-3.4,6.7-4.4c2.6-1,5.6-1.6,8.8-1.6c3.3,0,6.2,0.5,8.9,1.6
		c2.6,1,4.9,2.5,6.8,4.4c1.9,1.9,3.3,4.2,4.3,6.9c1,2.7,1.5,5.7,1.5,9c0,3.3-0.5,6.3-1.5,9c-1,2.7-2.5,5-4.3,6.9
		c-1.9,1.9-4.1,3.4-6.8,4.4c-2.6,1-5.6,1.5-8.9,1.5c-3.3,0-6.2-0.5-8.8-1.5c-2.6-1-4.9-2.5-6.7-4.4c-1.9-1.9-3.3-4.2-4.3-6.9
		c-1-2.7-1.5-5.7-1.5-9C1032,405.8,1032.5,402.8,1033.5,400.1z M1043.9,414c0.3,1.6,0.9,3,1.6,4.3c0.8,1.3,1.8,2.3,3.1,3
		c1.3,0.8,2.9,1.1,4.8,1.1c1.9,0,3.5-0.4,4.9-1.1c1.3-0.7,2.4-1.8,3.1-3c0.8-1.3,1.3-2.7,1.6-4.3c0.3-1.6,0.5-3.2,0.5-4.9
		c0-1.7-0.2-3.3-0.5-4.9c-0.3-1.6-0.9-3-1.6-4.3c-0.8-1.2-1.8-2.2-3.1-3c-1.3-0.8-2.9-1.2-4.9-1.2c-1.9,0-3.5,0.4-4.8,1.2
		c-1.3,0.8-2.3,1.8-3.1,3c-0.8,1.2-1.3,2.6-1.6,4.3c-0.3,1.6-0.5,3.2-0.5,4.9C1043.4,410.8,1043.6,412.4,1043.9,414z"/>
	<path fill="#FFFFFF" d="M1110.4,429.8v-5.8h-0.2c-1.4,2.4-3.3,4.1-5.6,5.2c-2.3,1.1-4.7,1.6-7.1,1.6c-3,0-5.5-0.4-7.5-1.2
		c-2-0.8-3.5-1.9-4.6-3.4c-1.1-1.5-1.9-3.3-2.4-5.4c-0.5-2.1-0.7-4.5-0.7-7v-25.5h11.4v23.4c0,3.4,0.5,6,1.6,7.7
		c1.1,1.7,3,2.5,5.7,2.5c3.1,0,5.3-0.9,6.7-2.8c1.4-1.8,2.1-4.9,2.1-9.1v-21.7h11.4v41.5H1110.4z"/>
	<path fill="#FFFFFF" d="M1139.5,419.5c0.5,0.9,1.2,1.6,2,2.2c0.8,0.6,1.7,1,2.8,1.2c1,0.3,2.1,0.4,3.2,0.4c0.8,0,1.6-0.1,2.5-0.3
		c0.9-0.2,1.7-0.5,2.4-0.9c0.7-0.4,1.3-0.9,1.8-1.6c0.5-0.7,0.7-1.5,0.7-2.5c0-1.7-1.1-3-3.4-3.8c-2.3-0.9-5.4-1.7-9.5-2.6
		c-1.7-0.4-3.3-0.8-4.9-1.3c-1.6-0.5-3-1.2-4.2-2c-1.2-0.8-2.2-1.9-3-3.1c-0.8-1.3-1.1-2.8-1.1-4.6c0-2.7,0.5-4.9,1.6-6.6
		c1-1.7,2.4-3.1,4.1-4.1c1.7-1,3.6-1.7,5.8-2.1c2.1-0.4,4.3-0.6,6.6-0.6s4.4,0.2,6.5,0.6c2.1,0.4,4,1.2,5.7,2.2c1.7,1,3,2.4,4.1,4.1
		c1.1,1.7,1.8,3.8,2,6.4h-10.8c-0.2-2.2-1-3.7-2.5-4.5c-1.5-0.8-3.3-1.2-5.3-1.2c-0.6,0-1.3,0-2.1,0.1c-0.7,0.1-1.4,0.3-2,0.5
		c-0.6,0.3-1.1,0.7-1.6,1.2c-0.4,0.5-0.6,1.2-0.6,2c0,1,0.4,1.8,1.1,2.5c0.7,0.6,1.7,1.2,2.9,1.6c1.2,0.4,2.6,0.8,4.1,1.1
		c1.6,0.3,3.1,0.7,4.7,1c1.7,0.4,3.3,0.8,4.9,1.4c1.6,0.5,3,1.2,4.2,2.1c1.2,0.9,2.2,2,3,3.3c0.7,1.3,1.1,2.9,1.1,4.9
		c0,2.7-0.5,5-1.6,6.9c-1.1,1.8-2.5,3.3-4.3,4.5c-1.8,1.1-3.8,1.9-6.1,2.4c-2.3,0.5-4.6,0.7-6.9,0.7c-2.4,0-4.8-0.2-7.1-0.7
		c-2.3-0.5-4.3-1.3-6.1-2.4c-1.8-1.1-3.3-2.6-4.4-4.5c-1.2-1.8-1.8-4.2-1.9-6.9h10.8C1138.7,417.6,1139,418.7,1139.5,419.5z"/>
	<path fill="#FFFFFF" d="M1206.6,372.6v20.9h0.2c1.4-2.1,3.3-3.7,5.7-4.7c2.4-1,4.9-1.5,7.4-1.5c2.1,0,4.1,0.4,6.2,1.3
		c2,0.9,3.9,2.2,5.5,3.9c1.6,1.8,3,4,4,6.8c1,2.8,1.5,6,1.5,9.8c0,3.8-0.5,7.1-1.5,9.8c-1,2.8-2.3,5-4,6.8c-1.6,1.8-3.5,3.1-5.5,3.9
		c-2,0.9-4.1,1.3-6.2,1.3c-3,0-5.8-0.5-8.2-1.4c-2.4-1-4.2-2.6-5.5-4.9h-0.2v5.3h-10.8v-57.3H1206.6z M1225.1,404.1
		c-0.4-1.6-1-3-1.8-4.3c-0.8-1.2-1.8-2.2-3-2.9c-1.2-0.7-2.7-1.1-4.4-1.1c-1.7,0-3.1,0.4-4.3,1.1c-1.2,0.7-2.2,1.7-3,2.9
		c-0.8,1.2-1.4,2.6-1.8,4.3c-0.4,1.6-0.6,3.3-0.6,5.1c0,1.7,0.2,3.4,0.6,5c0.4,1.6,1,3,1.8,4.3c0.8,1.2,1.8,2.2,3,2.9
		c1.2,0.7,2.7,1.1,4.3,1.1c1.7,0,3.2-0.4,4.4-1.1s2.2-1.7,3-2.9c0.8-1.2,1.4-2.6,1.8-4.3c0.4-1.6,0.6-3.3,0.6-5
		C1225.7,407.4,1225.5,405.7,1225.1,404.1z"/>
	<path fill="#FFFFFF" d="M1244.5,400.1c1-2.7,2.5-5,4.3-6.9c1.9-1.9,4.1-3.4,6.7-4.4c2.6-1,5.6-1.6,8.8-1.6c3.3,0,6.2,0.5,8.9,1.6
		c2.6,1,4.9,2.5,6.8,4.4c1.9,1.9,3.3,4.2,4.3,6.9c1,2.7,1.5,5.7,1.5,9c0,3.3-0.5,6.3-1.5,9c-1,2.7-2.5,5-4.3,6.9
		c-1.9,1.9-4.1,3.4-6.8,4.4c-2.6,1-5.6,1.5-8.9,1.5c-3.3,0-6.2-0.5-8.8-1.5c-2.6-1-4.9-2.5-6.7-4.4c-1.9-1.9-3.3-4.2-4.3-6.9
		c-1-2.7-1.5-5.7-1.5-9C1243,405.8,1243.5,402.8,1244.5,400.1z M1254.8,414c0.3,1.6,0.9,3,1.6,4.3c0.8,1.3,1.8,2.3,3.1,3
		c1.3,0.8,2.9,1.1,4.8,1.1c1.9,0,3.5-0.4,4.9-1.1c1.3-0.7,2.4-1.8,3.1-3c0.8-1.3,1.3-2.7,1.6-4.3c0.3-1.6,0.5-3.2,0.5-4.9
		c0-1.7-0.2-3.3-0.5-4.9c-0.3-1.6-0.9-3-1.6-4.3c-0.8-1.2-1.8-2.2-3.1-3c-1.3-0.8-2.9-1.2-4.9-1.2c-1.9,0-3.5,0.4-4.8,1.2
		c-1.3,0.8-2.3,1.8-3.1,3c-0.8,1.2-1.3,2.6-1.6,4.3c-0.3,1.6-0.5,3.2-0.5,4.9C1254.4,410.8,1254.5,412.4,1254.8,414z"/>
	<path fill="#FFFFFF" d="M1293.5,400.1c1-2.7,2.5-5,4.3-6.9c1.9-1.9,4.1-3.4,6.7-4.4c2.6-1,5.6-1.6,8.8-1.6c3.3,0,6.2,0.5,8.9,1.6
		c2.6,1,4.9,2.5,6.8,4.4c1.9,1.9,3.3,4.2,4.3,6.9c1,2.7,1.5,5.7,1.5,9c0,3.3-0.5,6.3-1.5,9c-1,2.7-2.5,5-4.3,6.9
		c-1.9,1.9-4.1,3.4-6.8,4.4c-2.6,1-5.6,1.5-8.9,1.5c-3.3,0-6.2-0.5-8.8-1.5c-2.6-1-4.9-2.5-6.7-4.4c-1.9-1.9-3.3-4.2-4.3-6.9
		c-1-2.7-1.5-5.7-1.5-9C1292,405.8,1292.5,402.8,1293.5,400.1z M1303.9,414c0.3,1.6,0.9,3,1.6,4.3c0.8,1.3,1.8,2.3,3.1,3
		c1.3,0.8,2.9,1.1,4.8,1.1c1.9,0,3.5-0.4,4.9-1.1c1.3-0.7,2.4-1.8,3.1-3c0.8-1.3,1.3-2.7,1.6-4.3c0.3-1.6,0.5-3.2,0.5-4.9
		c0-1.7-0.2-3.3-0.5-4.9c-0.3-1.6-0.9-3-1.6-4.3c-0.8-1.2-1.8-2.2-3.1-3c-1.3-0.8-2.9-1.2-4.9-1.2c-1.9,0-3.5,0.4-4.8,1.2
		c-1.3,0.8-2.3,1.8-3.1,3c-0.8,1.2-1.3,2.6-1.6,4.3c-0.3,1.6-0.5,3.2-0.5,4.9C1303.4,410.8,1303.5,412.4,1303.9,414z"/>
	<path fill="#FFFFFF" d="M1354.7,372.6v30.7l14.4-14.9h13.5l-15.6,15.2l17.4,26.2h-13.8l-11.4-18.5l-4.4,4.3v14.3h-11.4v-57.3
		H1354.7z"/>
</g>
<g enable-background="new    ">
	<path fill="#FFFFFF" d="M218.2,489.5v20.9h0.2c1.4-2.1,3.3-3.7,5.7-4.7c2.4-1,4.9-1.5,7.4-1.5c2.1,0,4.1,0.4,6.2,1.3
		c2,0.9,3.9,2.2,5.5,3.9c1.6,1.8,3,4,4,6.8c1,2.8,1.5,6,1.5,9.8c0,3.8-0.5,7.1-1.5,9.8c-1,2.8-2.3,5-4,6.8c-1.6,1.8-3.5,3.1-5.5,3.9
		c-2,0.9-4.1,1.3-6.2,1.3c-3,0-5.8-0.5-8.2-1.4c-2.4-1-4.2-2.6-5.5-4.9h-0.2v5.3h-10.8v-57.3H218.2z M236.7,521
		c-0.4-1.6-1-3-1.8-4.3c-0.8-1.2-1.8-2.2-3-2.9c-1.2-0.7-2.7-1.1-4.4-1.1c-1.7,0-3.1,0.4-4.3,1.1c-1.2,0.7-2.2,1.7-3,2.9
		c-0.8,1.2-1.4,2.6-1.8,4.3c-0.4,1.6-0.6,3.3-0.6,5.1c0,1.7,0.2,3.4,0.6,5c0.4,1.6,1,3,1.8,4.3c0.8,1.2,1.8,2.2,3,2.9
		c1.2,0.7,2.7,1.1,4.3,1.1c1.7,0,3.2-0.4,4.4-1.1c1.2-0.7,2.2-1.7,3-2.9c0.8-1.2,1.4-2.6,1.8-4.3c0.4-1.6,0.6-3.3,0.6-5
		C237.2,524.3,237,522.6,236.7,521z"/>
	<path fill="#FFFFFF" d="M271.1,559.1c-2.2,1.4-5.2,2.2-9.1,2.2c-1.2,0-2.3,0-3.5-0.1c-1.2-0.1-2.3-0.2-3.5-0.3v-9.4
		c1.1,0.1,2.2,0.2,3.3,0.3c1.1,0.1,2.2,0.1,3.4,0.1c1.5-0.2,2.6-0.8,3.3-1.8c0.7-1,1.1-2.1,1.1-3.4c0-0.9-0.2-1.8-0.5-2.6
		l-14.5-38.9h12.1l9.4,28.4h0.2l9.1-28.4h11.8l-17.3,46.6C275.1,555.3,273.3,557.7,271.1,559.1z"/>
	<path fill="#FFFFFF" d="M342.5,505.3v7.6h-8.3v20.5c0,1.9,0.3,3.2,1,3.8c0.6,0.6,1.9,1,3.9,1c0.6,0,1.3,0,1.8-0.1
		c0.6-0.1,1.1-0.1,1.7-0.2v8.8c-1,0.2-2,0.3-3.2,0.3c-1.2,0.1-2.3,0.1-3.4,0.1c-1.8,0-3.4-0.1-5-0.4c-1.6-0.2-3-0.7-4.2-1.4
		c-1.2-0.7-2.2-1.7-2.8-3c-0.7-1.3-1-3-1-5.1v-24.5h-6.9v-7.6h6.9v-12.4h11.4v12.4H342.5z"/>
	<path fill="#FFFFFF" d="M359.4,489.5v21.6h0.2c1.4-2.4,3.3-4.2,5.5-5.3c2.2-1.1,4.4-1.6,6.6-1.6c3,0,5.5,0.4,7.5,1.2
		c2,0.8,3.5,2,4.6,3.4c1.1,1.5,1.9,3.3,2.4,5.4c0.5,2.1,0.7,4.5,0.7,7v25.5h-11.4v-23.4c0-3.4-0.5-6-1.6-7.7c-1.1-1.7-3-2.5-5.7-2.5
		c-3.1,0-5.3,0.9-6.7,2.8c-1.4,1.8-2.1,4.9-2.1,9.1v21.7H348v-57.3H359.4z"/>
	<path fill="#FFFFFF" d="M407.8,536.8c1.7,1.7,4.2,2.5,7.4,2.5c2.3,0,4.3-0.6,5.9-1.7c1.7-1.1,2.7-2.4,3-3.6h10
		c-1.6,5-4.1,8.5-7.4,10.7c-3.3,2.1-7.3,3.2-12,3.2c-3.3,0-6.2-0.5-8.8-1.6c-2.6-1-4.8-2.5-6.7-4.5c-1.8-1.9-3.2-4.2-4.2-6.9
		c-1-2.7-1.5-5.6-1.5-8.8c0-3.1,0.5-6,1.5-8.7c1-2.7,2.5-5,4.3-6.9c1.9-2,4.1-3.5,6.7-4.6c2.6-1.1,5.5-1.7,8.6-1.7
		c3.5,0,6.6,0.7,9.2,2c2.6,1.4,4.8,3.2,6.5,5.5c1.7,2.3,2.9,4.9,3.6,7.9c0.7,2.9,1,6,0.8,9.2h-29.9
		C405.1,532.5,406,535.2,407.8,536.8z M420.6,515c-1.4-1.5-3.4-2.2-6.2-2.2c-1.8,0-3.3,0.3-4.5,0.9c-1.2,0.6-2.2,1.4-2.9,2.3
		c-0.7,0.9-1.2,1.9-1.5,2.9c-0.3,1-0.5,1.9-0.5,2.7h18.5C422.9,518.7,422,516.5,420.6,515z"/>
	<path fill="#FFFFFF" d="M473.5,536.5c0.5,0.9,1.2,1.6,2,2.2c0.8,0.6,1.7,1,2.8,1.2c1,0.3,2.1,0.4,3.2,0.4c0.8,0,1.6-0.1,2.5-0.3
		c0.9-0.2,1.7-0.5,2.4-0.9c0.7-0.4,1.3-0.9,1.8-1.6c0.5-0.7,0.7-1.5,0.7-2.5c0-1.7-1.1-3-3.4-3.8c-2.3-0.9-5.4-1.7-9.5-2.6
		c-1.7-0.4-3.3-0.8-4.9-1.3c-1.6-0.5-3-1.2-4.2-2c-1.2-0.8-2.2-1.9-3-3.1c-0.7-1.3-1.1-2.8-1.1-4.6c0-2.7,0.5-4.9,1.6-6.6
		c1-1.7,2.4-3.1,4.1-4.1c1.7-1,3.6-1.7,5.8-2.1c2.1-0.4,4.3-0.6,6.6-0.6c2.2,0,4.4,0.2,6.5,0.6c2.1,0.4,4,1.2,5.7,2.2
		c1.7,1,3,2.4,4.1,4.1c1.1,1.7,1.8,3.8,2,6.4h-10.8c-0.2-2.2-1-3.7-2.5-4.5c-1.5-0.8-3.3-1.2-5.3-1.2c-0.6,0-1.3,0-2.1,0.1
		c-0.7,0.1-1.4,0.3-2,0.5c-0.6,0.3-1.1,0.7-1.6,1.2c-0.4,0.5-0.6,1.2-0.6,2c0,1,0.4,1.8,1.1,2.5c0.7,0.6,1.7,1.2,2.9,1.6
		c1.2,0.4,2.6,0.8,4.1,1.1c1.6,0.3,3.1,0.7,4.7,1c1.7,0.4,3.3,0.8,4.9,1.4c1.6,0.5,3,1.2,4.2,2.1c1.2,0.9,2.2,2,3,3.3
		c0.7,1.3,1.1,2.9,1.1,4.9c0,2.7-0.5,5-1.6,6.9c-1.1,1.8-2.5,3.3-4.3,4.5c-1.8,1.1-3.8,1.9-6.1,2.4c-2.3,0.5-4.6,0.7-6.9,0.7
		c-2.4,0-4.8-0.2-7.1-0.7c-2.3-0.5-4.3-1.3-6.1-2.4c-1.8-1.1-3.3-2.6-4.4-4.5c-1.2-1.8-1.8-4.2-1.9-6.9h10.8
		C472.7,534.5,473,535.6,473.5,536.5z"/>
	<path fill="#FFFFFF" d="M506.5,518.1c0.2-2.7,0.8-4.9,2-6.7c1.2-1.8,2.7-3.2,4.5-4.3c1.8-1.1,3.9-1.8,6.1-2.3
		c2.3-0.5,4.6-0.7,6.9-0.7c2.1,0,4.2,0.1,6.3,0.4c2.1,0.3,4.1,0.9,5.9,1.7c1.8,0.9,3.2,2,4.3,3.6c1.1,1.5,1.7,3.5,1.7,6.1v21.6
		c0,1.9,0.1,3.7,0.3,5.4c0.2,1.7,0.6,3,1.1,3.9h-11.6c-0.2-0.6-0.4-1.3-0.5-2c-0.1-0.7-0.2-1.4-0.3-2c-1.8,1.9-4,3.2-6.4,3.9
		c-2.5,0.7-5,1.1-7.5,1.1c-2,0-3.8-0.2-5.5-0.7c-1.7-0.5-3.2-1.2-4.5-2.2c-1.3-1-2.3-2.3-3-3.9c-0.7-1.6-1.1-3.4-1.1-5.5
		c0-2.4,0.4-4.3,1.2-5.8c0.8-1.5,1.9-2.7,3.2-3.6c1.3-0.9,2.8-1.6,4.5-2c1.7-0.5,3.4-0.8,5.1-1.1c1.7-0.3,3.4-0.5,5.1-0.6
		c1.7-0.2,3.1-0.4,4.4-0.7c1.3-0.3,2.3-0.8,3-1.4c0.7-0.6,1.1-1.5,1-2.7c0-1.2-0.2-2.2-0.6-2.9c-0.4-0.7-0.9-1.3-1.6-1.7
		c-0.7-0.4-1.4-0.7-2.3-0.8c-0.9-0.1-1.8-0.2-2.8-0.2c-2.2,0-4,0.5-5.3,1.4c-1.3,1-2,2.6-2.2,4.8H506.5z M532.8,526.5
		c-0.5,0.4-1.1,0.8-1.8,1c-0.7,0.2-1.5,0.4-2.3,0.6c-0.8,0.2-1.7,0.3-2.6,0.4c-0.9,0.1-1.8,0.2-2.7,0.4c-0.9,0.2-1.7,0.4-2.5,0.6
		c-0.8,0.3-1.6,0.6-2.2,1.1c-0.6,0.5-1.1,1-1.5,1.7c-0.4,0.7-0.6,1.6-0.6,2.6c0,1,0.2,1.9,0.6,2.6c0.4,0.7,0.9,1.2,1.5,1.6
		c0.6,0.4,1.4,0.7,2.2,0.8c0.9,0.2,1.7,0.2,2.6,0.2c2.2,0,4-0.4,5.2-1.1c1.2-0.7,2.1-1.6,2.7-2.7c0.6-1,0.9-2.1,1.1-3.2
		c0.1-1.1,0.2-1.9,0.2-2.6V526.5z"/>
	<path fill="#FFFFFF" d="M564.1,505.3v5.6h0.2c1.5-2.1,3.3-3.8,5.4-5c2.1-1.2,4.5-1.8,7.3-1.8c2.6,0,5,0.5,7.2,1.5
		c2.2,1,3.8,2.8,4.9,5.4c1.2-1.8,2.9-3.4,5-4.8c2.1-1.4,4.6-2.1,7.5-2.1c2.2,0,4.2,0.3,6.1,0.8c1.9,0.5,3.5,1.4,4.8,2.6
		c1.3,1.2,2.4,2.7,3.1,4.6c0.7,1.9,1.1,4.2,1.1,6.9v27.8h-11.4v-23.5c0-1.4-0.1-2.7-0.2-3.9c-0.1-1.2-0.4-2.3-0.9-3.2
		c-0.5-0.9-1.2-1.6-2.1-2.2c-0.9-0.5-2.2-0.8-3.8-0.8c-1.6,0-2.9,0.3-3.9,0.9c-1,0.6-1.8,1.4-2.3,2.4c-0.6,1-0.9,2.1-1.1,3.4
		c-0.2,1.3-0.3,2.5-0.3,3.8v23.1h-11.4v-23.3c0-1.2,0-2.4-0.1-3.6c-0.1-1.2-0.3-2.3-0.7-3.3c-0.4-1-1.1-1.8-2-2.4
		c-0.9-0.6-2.3-0.9-4.1-0.9c-0.5,0-1.2,0.1-2.1,0.4c-0.9,0.2-1.7,0.7-2.6,1.4c-0.8,0.7-1.5,1.6-2.1,2.9c-0.6,1.3-0.9,2.9-0.9,4.9
		v24.1h-11.4v-41.5H564.1z"/>
	<path fill="#FFFFFF" d="M637.9,536.8c1.7,1.7,4.2,2.5,7.4,2.5c2.3,0,4.3-0.6,5.9-1.7c1.7-1.1,2.7-2.4,3-3.6h10
		c-1.6,5-4.1,8.5-7.4,10.7c-3.3,2.1-7.3,3.2-12,3.2c-3.3,0-6.2-0.5-8.8-1.6c-2.6-1-4.8-2.5-6.7-4.5c-1.8-1.9-3.2-4.2-4.2-6.9
		c-1-2.7-1.5-5.6-1.5-8.8c0-3.1,0.5-6,1.5-8.7c1-2.7,2.5-5,4.3-6.9c1.9-2,4.1-3.5,6.7-4.6c2.6-1.1,5.5-1.7,8.6-1.7
		c3.5,0,6.6,0.7,9.2,2c2.6,1.4,4.8,3.2,6.5,5.5c1.7,2.3,2.9,4.9,3.6,7.9c0.7,2.9,1,6,0.8,9.2h-29.9
		C635.2,532.5,636.2,535.2,637.9,536.8z M650.8,515c-1.4-1.5-3.4-2.2-6.2-2.2c-1.8,0-3.3,0.3-4.5,0.9c-1.2,0.6-2.2,1.4-2.9,2.3
		c-0.7,0.9-1.2,1.9-1.5,2.9c-0.3,1-0.5,1.9-0.5,2.7h18.5C653.1,518.7,652.1,516.5,650.8,515z"/>
	<path fill="#FFFFFF" d="M693.6,518.1c0.2-2.7,0.8-4.9,2-6.7c1.2-1.8,2.7-3.2,4.5-4.3c1.8-1.1,3.9-1.8,6.1-2.3
		c2.3-0.5,4.6-0.7,6.9-0.7c2.1,0,4.2,0.1,6.3,0.4c2.1,0.3,4.1,0.9,5.9,1.7c1.8,0.9,3.2,2,4.3,3.6c1.1,1.5,1.7,3.5,1.7,6.1v21.6
		c0,1.9,0.1,3.7,0.3,5.4c0.2,1.7,0.6,3,1.1,3.9h-11.6c-0.2-0.6-0.4-1.3-0.5-2c-0.1-0.7-0.2-1.4-0.3-2c-1.8,1.9-4,3.2-6.4,3.9
		c-2.5,0.7-5,1.1-7.5,1.1c-2,0-3.8-0.2-5.5-0.7c-1.7-0.5-3.2-1.2-4.5-2.2c-1.3-1-2.3-2.3-3-3.9c-0.7-1.6-1.1-3.4-1.1-5.5
		c0-2.4,0.4-4.3,1.2-5.8c0.8-1.5,1.9-2.7,3.2-3.6c1.3-0.9,2.8-1.6,4.5-2c1.7-0.5,3.4-0.8,5.1-1.1c1.7-0.3,3.4-0.5,5.1-0.6
		c1.7-0.2,3.1-0.4,4.4-0.7c1.3-0.3,2.3-0.8,3-1.4c0.7-0.6,1.1-1.5,1-2.7c0-1.2-0.2-2.2-0.6-2.9c-0.4-0.7-0.9-1.3-1.6-1.7
		c-0.7-0.4-1.4-0.7-2.3-0.8c-0.9-0.1-1.8-0.2-2.8-0.2c-2.2,0-4,0.5-5.3,1.4c-1.3,1-2,2.6-2.2,4.8H693.6z M719.9,526.5
		c-0.5,0.4-1.1,0.8-1.8,1c-0.7,0.2-1.5,0.4-2.3,0.6c-0.8,0.2-1.7,0.3-2.6,0.4c-0.9,0.1-1.8,0.2-2.7,0.4c-0.9,0.2-1.7,0.4-2.5,0.6
		c-0.8,0.3-1.6,0.6-2.2,1.1c-0.6,0.5-1.1,1-1.5,1.7c-0.4,0.7-0.6,1.6-0.6,2.6c0,1,0.2,1.9,0.6,2.6c0.4,0.7,0.9,1.2,1.5,1.6
		c0.6,0.4,1.4,0.7,2.2,0.8c0.9,0.2,1.7,0.2,2.6,0.2c2.2,0,4-0.4,5.2-1.1c1.2-0.7,2.1-1.6,2.7-2.7c0.6-1,0.9-2.1,1.1-3.2
		c0.1-1.1,0.2-1.9,0.2-2.6V526.5z"/>
	<path fill="#FFFFFF" d="M768.2,546.8V541h-0.2c-1.4,2.4-3.3,4.1-5.6,5.2c-2.3,1.1-4.7,1.6-7.1,1.6c-3,0-5.5-0.4-7.5-1.2
		c-2-0.8-3.5-1.9-4.6-3.4c-1.1-1.5-1.9-3.3-2.4-5.4c-0.5-2.1-0.7-4.5-0.7-7v-25.5h11.4v23.4c0,3.4,0.5,6,1.6,7.7
		c1.1,1.7,3,2.5,5.7,2.5c3.1,0,5.3-0.9,6.7-2.8c1.4-1.8,2.1-4.9,2.1-9.1v-21.7H779v41.5H768.2z"/>
	<path fill="#FFFFFF" d="M810.4,505.3v7.6h-8.3v20.5c0,1.9,0.3,3.2,1,3.8c0.6,0.6,1.9,1,3.8,1c0.6,0,1.3,0,1.8-0.1
		c0.6-0.1,1.1-0.1,1.7-0.2v8.8c-1,0.2-2,0.3-3.2,0.3c-1.2,0.1-2.3,0.1-3.4,0.1c-1.8,0-3.4-0.1-5-0.4c-1.6-0.2-3-0.7-4.2-1.4
		c-1.2-0.7-2.2-1.7-2.8-3c-0.7-1.3-1-3-1-5.1v-24.5h-6.9v-7.6h6.9v-12.4h11.4v12.4H810.4z"/>
	<path fill="#FFFFFF" d="M827.3,489.5v21.6h0.2c1.4-2.4,3.3-4.2,5.5-5.3c2.2-1.1,4.4-1.6,6.6-1.6c3,0,5.5,0.4,7.5,1.2
		c2,0.8,3.5,2,4.6,3.4c1.1,1.5,1.9,3.3,2.4,5.4c0.5,2.1,0.7,4.5,0.7,7v25.5h-11.4v-23.4c0-3.4-0.5-6-1.6-7.7c-1.1-1.7-3-2.5-5.7-2.5
		c-3.1,0-5.3,0.9-6.7,2.8c-1.4,1.8-2.1,4.9-2.1,9.1v21.7h-11.4v-57.3H827.3z"/>
	<path fill="#FFFFFF" d="M863.7,517.1c1-2.7,2.5-5,4.3-6.9c1.9-1.9,4.1-3.4,6.7-4.4c2.6-1,5.6-1.6,8.8-1.6c3.3,0,6.2,0.5,8.9,1.6
		c2.6,1,4.9,2.5,6.8,4.4c1.9,1.9,3.3,4.2,4.3,6.9c1,2.7,1.5,5.7,1.5,9c0,3.3-0.5,6.3-1.5,9c-1,2.7-2.5,5-4.3,6.9
		c-1.9,1.9-4.1,3.4-6.8,4.4c-2.6,1-5.6,1.5-8.9,1.5c-3.3,0-6.2-0.5-8.8-1.5c-2.6-1-4.9-2.5-6.7-4.4c-1.9-1.9-3.3-4.2-4.3-6.9
		c-1-2.7-1.5-5.7-1.5-9C862.2,522.8,862.7,519.8,863.7,517.1z M874,530.9c0.3,1.6,0.9,3,1.6,4.3c0.8,1.3,1.8,2.3,3.1,3
		c1.3,0.8,2.9,1.1,4.8,1.1c1.9,0,3.5-0.4,4.9-1.1c1.3-0.7,2.4-1.8,3.1-3c0.8-1.3,1.3-2.7,1.6-4.3c0.3-1.6,0.5-3.2,0.5-4.9
		c0-1.7-0.2-3.3-0.5-4.9c-0.3-1.6-0.9-3-1.6-4.3c-0.8-1.2-1.8-2.2-3.1-3c-1.3-0.8-2.9-1.2-4.9-1.2c-1.9,0-3.5,0.4-4.8,1.2
		c-1.3,0.8-2.3,1.8-3.1,3c-0.8,1.2-1.3,2.6-1.6,4.3c-0.3,1.6-0.5,3.2-0.5,4.9C873.6,527.8,873.7,529.4,874,530.9z"/>
	<path fill="#FFFFFF" d="M923.3,505.3v7.7h0.2c0.5-1.3,1.3-2.5,2.2-3.6c0.9-1.1,2-2,3.1-2.8c1.2-0.8,2.4-1.4,3.8-1.8
		c1.3-0.4,2.7-0.6,4.2-0.6c0.7,0,1.6,0.1,2.5,0.4v10.6c-0.5-0.1-1.2-0.2-1.9-0.3c-0.8-0.1-1.5-0.1-2.2-0.1c-2.1,0-3.9,0.3-5.3,1
		c-1.4,0.7-2.6,1.6-3.5,2.8c-0.9,1.2-1.5,2.6-1.9,4.2s-0.6,3.3-0.6,5.2v18.7h-11.4v-41.5H923.3z"/>
	<path fill="#FFFFFF" d="M949.4,534.4v12.4h-12.6v-12.4H949.4z"/>
</g>
<g enable-background="new    ">
	<path fill="#FFFFFF" d="M207.1,382.3v-9.4h11.4v9.4H207.1z M218.5,388.7v41.5h-11.4v-41.5H218.5z"/>
	<path fill="#FFFFFF" d="M237.1,419.9c0.5,0.9,1.2,1.6,2,2.2c0.8,0.6,1.7,1,2.8,1.2c1,0.3,2.1,0.4,3.2,0.4c0.8,0,1.6-0.1,2.5-0.3
		c0.9-0.2,1.7-0.5,2.4-0.9c0.7-0.4,1.3-0.9,1.8-1.6c0.5-0.7,0.7-1.5,0.7-2.5c0-1.7-1.1-3-3.4-3.8c-2.3-0.9-5.4-1.7-9.5-2.6
		c-1.7-0.4-3.3-0.8-4.9-1.3c-1.6-0.5-3-1.2-4.2-2c-1.2-0.8-2.2-1.9-3-3.1c-0.7-1.3-1.1-2.8-1.1-4.6c0-2.7,0.5-4.9,1.6-6.6
		c1-1.7,2.4-3.1,4.1-4.1c1.7-1,3.6-1.7,5.8-2.1c2.1-0.4,4.3-0.6,6.6-0.6c2.2,0,4.4,0.2,6.5,0.6c2.1,0.4,4,1.2,5.7,2.2
		c1.7,1,3,2.4,4.1,4.1c1.1,1.7,1.8,3.8,2,6.4H252c-0.2-2.2-1-3.7-2.5-4.5c-1.5-0.8-3.3-1.2-5.3-1.2c-0.6,0-1.3,0-2.1,0.1
		c-0.7,0.1-1.4,0.3-2,0.5c-0.6,0.3-1.1,0.7-1.6,1.2c-0.4,0.5-0.6,1.2-0.6,2c0,1,0.4,1.8,1.1,2.5c0.7,0.6,1.7,1.2,2.9,1.6
		c1.2,0.4,2.6,0.8,4.1,1.1c1.6,0.3,3.1,0.7,4.7,1c1.7,0.4,3.3,0.8,4.9,1.4c1.6,0.5,3,1.2,4.2,2.1c1.2,0.9,2.2,2,3,3.3
		c0.7,1.3,1.1,2.9,1.1,4.9c0,2.7-0.5,5-1.6,6.9c-1.1,1.8-2.5,3.3-4.3,4.5c-1.8,1.1-3.8,1.9-6.1,2.4c-2.3,0.5-4.6,0.7-6.9,0.7
		c-2.4,0-4.8-0.2-7.1-0.7c-2.3-0.5-4.3-1.3-6.1-2.4c-1.8-1.1-3.3-2.6-4.4-4.5c-1.2-1.8-1.8-4.2-1.9-6.9h10.8
		C236.3,418,236.6,419,237.1,419.9z"/>
</g>
<circle fill="#FFFFFF" stroke="#008AC0" stroke-linejoin="round" stroke-miterlimit="10" cx="118.5" cy="401.8" r="76.9"/>
<circle fill="#FFFFFF" stroke="#00649E" stroke-linejoin="round" stroke-miterlimit="10" cx="765.9" cy="79.1" r="76.9"/>
<g enable-background="new    ">
	<path fill="#00649E" d="M711.5,81.1c0.2,0.4,0.5,0.7,0.8,0.9c0.3,0.2,0.7,0.4,1.2,0.5c0.4,0.1,0.9,0.2,1.4,0.2c0.3,0,0.7,0,1.1-0.1
		c0.4-0.1,0.7-0.2,1-0.4s0.6-0.4,0.8-0.7c0.2-0.3,0.3-0.6,0.3-1.1c0-0.7-0.5-1.3-1.5-1.7c-1-0.4-2.3-0.7-4.1-1.1
		c-0.7-0.2-1.4-0.3-2.1-0.6c-0.7-0.2-1.3-0.5-1.8-0.9c-0.5-0.4-1-0.8-1.3-1.3c-0.3-0.5-0.5-1.2-0.5-2c0-1.1,0.2-2.1,0.7-2.8
		c0.4-0.7,1-1.3,1.8-1.7c0.7-0.4,1.6-0.7,2.5-0.9s1.9-0.3,2.8-0.3s1.9,0.1,2.8,0.3c0.9,0.2,1.7,0.5,2.4,0.9c0.7,0.4,1.3,1,1.8,1.7
		c0.5,0.7,0.8,1.6,0.8,2.7h-4.6c-0.1-0.9-0.4-1.6-1.1-1.9c-0.6-0.3-1.4-0.5-2.3-0.5c-0.3,0-0.6,0-0.9,0.1c-0.3,0-0.6,0.1-0.9,0.2
		c-0.3,0.1-0.5,0.3-0.7,0.5c-0.2,0.2-0.3,0.5-0.3,0.9c0,0.4,0.2,0.8,0.5,1.1c0.3,0.3,0.7,0.5,1.3,0.7s1.1,0.3,1.8,0.5
		c0.7,0.1,1.3,0.3,2,0.4c0.7,0.2,1.4,0.4,2.1,0.6s1.3,0.5,1.8,0.9c0.5,0.4,1,0.9,1.3,1.4c0.3,0.6,0.5,1.3,0.5,2.1
		c0,1.2-0.2,2.2-0.7,2.9c-0.5,0.8-1.1,1.4-1.8,1.9c-0.8,0.5-1.6,0.8-2.6,1s-2,0.3-3,0.3c-1,0-2-0.1-3-0.3s-1.9-0.6-2.6-1
		c-0.8-0.5-1.4-1.1-1.9-1.9c-0.5-0.8-0.8-1.8-0.8-3h4.6C711.1,80.3,711.3,80.8,711.5,81.1z"/>
	<path fill="#00649E" d="M737.9,85.6v-2.5h-0.1c-0.6,1-1.4,1.8-2.4,2.2s-2,0.7-3,0.7c-1.3,0-2.4-0.2-3.2-0.5c-0.8-0.3-1.5-0.8-2-1.5
		c-0.5-0.6-0.8-1.4-1-2.3c-0.2-0.9-0.3-1.9-0.3-3v-11h4.9v10.1c0,1.5,0.2,2.6,0.7,3.3c0.5,0.7,1.3,1.1,2.4,1.1
		c1.3,0,2.3-0.4,2.9-1.2c0.6-0.8,0.9-2.1,0.9-3.9v-9.3h4.9v17.8H737.9z"/>
	<path fill="#00649E" d="M751.2,61v9h0.1c0.6-0.9,1.4-1.6,2.4-2c1-0.4,2.1-0.6,3.2-0.6c0.9,0,1.8,0.2,2.7,0.6
		c0.9,0.4,1.7,0.9,2.4,1.7c0.7,0.8,1.3,1.7,1.7,2.9c0.4,1.2,0.7,2.6,0.7,4.2c0,1.6-0.2,3-0.7,4.2c-0.4,1.2-1,2.2-1.7,2.9
		c-0.7,0.8-1.5,1.3-2.4,1.7c-0.9,0.4-1.8,0.6-2.7,0.6c-1.3,0-2.5-0.2-3.5-0.6c-1-0.4-1.8-1.1-2.3-2.1h-0.1v2.3h-4.7V61H751.2z
		 M759.1,74.5c-0.2-0.7-0.4-1.3-0.8-1.8c-0.3-0.5-0.8-0.9-1.3-1.3s-1.1-0.5-1.9-0.5c-0.7,0-1.3,0.2-1.9,0.5c-0.5,0.3-1,0.7-1.3,1.3
		c-0.3,0.5-0.6,1.1-0.8,1.8c-0.2,0.7-0.2,1.4-0.2,2.2c0,0.7,0.1,1.4,0.2,2.1c0.2,0.7,0.4,1.3,0.8,1.8c0.3,0.5,0.8,0.9,1.3,1.3
		c0.5,0.3,1.1,0.5,1.9,0.5c0.7,0,1.4-0.2,1.9-0.5s0.9-0.7,1.3-1.3c0.3-0.5,0.6-1.1,0.8-1.8s0.2-1.4,0.2-2.1
		C759.3,75.9,759.3,75.2,759.1,74.5z"/>
	<path fill="#00649E" d="M765.9,87.8c0.5,0,0.9-0.1,1.3-0.3c0.4-0.2,0.6-0.6,0.6-1.3V67.8h4.9v18.7c0,0.9-0.1,1.7-0.3,2.4
		c-0.2,0.7-0.5,1.2-1,1.7s-1.1,0.8-1.9,1c-0.8,0.2-1.8,0.3-3.1,0.3c-0.6,0-1.1,0-1.6-0.1v-4C765.1,87.7,765.4,87.8,765.9,87.8z
		 M767.8,65v-4h4.9v4H767.8z"/>
	<path fill="#00649E" d="M782.1,81.3c0.7,0.7,1.8,1.1,3.2,1.1c1,0,1.8-0.2,2.5-0.7c0.7-0.5,1.1-1,1.3-1.6h4.3
		c-0.7,2.1-1.7,3.7-3.2,4.6c-1.4,0.9-3.1,1.4-5.2,1.4c-1.4,0-2.7-0.2-3.8-0.7c-1.1-0.4-2.1-1.1-2.9-1.9s-1.4-1.8-1.8-3
		c-0.4-1.1-0.6-2.4-0.6-3.8c0-1.3,0.2-2.6,0.7-3.7c0.4-1.1,1.1-2.1,1.9-3c0.8-0.8,1.8-1.5,2.9-2c1.1-0.5,2.3-0.7,3.7-0.7
		c1.5,0,2.8,0.3,4,0.9c1.1,0.6,2,1.4,2.8,2.4c0.7,1,1.2,2.1,1.6,3.4c0.3,1.3,0.4,2.6,0.3,4h-12.8C781,79.4,781.4,80.6,782.1,81.3z
		 M787.7,71.9c-0.6-0.6-1.5-1-2.7-1c-0.8,0-1.4,0.1-1.9,0.4c-0.5,0.3-0.9,0.6-1.2,1c-0.3,0.4-0.5,0.8-0.7,1.2
		c-0.1,0.4-0.2,0.8-0.2,1.2h8C788.7,73.5,788.3,72.6,787.7,71.9z"/>
	<path fill="#00649E" d="M805.2,71c-0.8,0-1.4,0.2-2,0.5c-0.5,0.4-1,0.8-1.3,1.4c-0.3,0.6-0.6,1.2-0.7,1.9s-0.2,1.3-0.2,2
		c0,0.6,0.1,1.3,0.2,2s0.4,1.3,0.7,1.8c0.3,0.5,0.7,1,1.3,1.3c0.5,0.3,1.2,0.5,1.9,0.5c1.2,0,2.1-0.3,2.7-1c0.6-0.7,1-1.5,1.2-2.6
		h4.7c-0.3,2.4-1.2,4.2-2.8,5.4c-1.5,1.2-3.5,1.9-5.8,1.9c-1.3,0-2.6-0.2-3.7-0.7c-1.1-0.4-2.1-1.1-2.8-1.9
		c-0.8-0.8-1.4-1.8-1.8-2.9c-0.4-1.1-0.7-2.3-0.7-3.7c0-1.4,0.2-2.7,0.6-3.8c0.4-1.2,1-2.2,1.8-3.1s1.7-1.5,2.9-2
		c1.1-0.5,2.4-0.7,3.9-0.7c1.1,0,2.1,0.1,3,0.4c1,0.3,1.8,0.7,2.6,1.3c0.8,0.6,1.4,1.3,1.9,2.1c0.5,0.8,0.8,1.8,0.8,3h-4.8
		C808.5,72,807.3,71,805.2,71z"/>
	<path fill="#00649E" d="M826.2,67.8V71h-3.6v8.8c0,0.8,0.1,1.4,0.4,1.7c0.3,0.3,0.8,0.4,1.7,0.4c0.3,0,0.5,0,0.8,0s0.5-0.1,0.7-0.1
		v3.8c-0.4,0.1-0.9,0.1-1.4,0.1c-0.5,0-1,0-1.5,0c-0.8,0-1.5-0.1-2.2-0.2c-0.7-0.1-1.3-0.3-1.8-0.6s-0.9-0.7-1.2-1.3
		c-0.3-0.6-0.4-1.3-0.4-2.2V71h-3v-3.3h3v-5.3h4.9v5.3H826.2z"/>
</g>
<g enable-background="new    ">
	<path fill="#0E84B6" d="M88.1,408.4l-6.2-18.2h5.2l3.8,12.4H91l3.8-12.4h5l-6.1,18.2H88.1z"/>
	<path fill="#0E84B6" d="M107.2,404.1c0.7,0.7,1.8,1.1,3.2,1.1c1,0,1.9-0.3,2.6-0.8c0.7-0.5,1.2-1,1.3-1.6h4.4
		c-0.7,2.2-1.8,3.7-3.2,4.7c-1.5,0.9-3.2,1.4-5.3,1.4c-1.4,0-2.7-0.2-3.9-0.7c-1.1-0.5-2.1-1.1-2.9-1.9c-0.8-0.8-1.4-1.8-1.8-3
		c-0.4-1.2-0.6-2.5-0.6-3.9c0-1.4,0.2-2.6,0.7-3.8c0.4-1.2,1.1-2.2,1.9-3c0.8-0.9,1.8-1.5,2.9-2c1.1-0.5,2.4-0.7,3.8-0.7
		c1.5,0,2.9,0.3,4,0.9c1.1,0.6,2.1,1.4,2.8,2.4c0.7,1,1.3,2.2,1.6,3.4c0.3,1.3,0.4,2.6,0.4,4h-13.1
		C106,402.2,106.4,403.3,107.2,404.1z M112.8,394.5c-0.6-0.7-1.5-1-2.7-1c-0.8,0-1.5,0.1-2,0.4c-0.5,0.3-0.9,0.6-1.3,1
		c-0.3,0.4-0.5,0.8-0.7,1.3c-0.1,0.4-0.2,0.8-0.2,1.2h8.1C113.8,396.1,113.4,395.2,112.8,394.5z"/>
	<path fill="#0E84B6" d="M126.7,390.3v3.4h0.1c0.2-0.6,0.5-1.1,0.9-1.6s0.9-0.9,1.4-1.2c0.5-0.3,1.1-0.6,1.7-0.8
		c0.6-0.2,1.2-0.3,1.8-0.3c0.3,0,0.7,0.1,1.1,0.2v4.6c-0.2,0-0.5-0.1-0.8-0.1c-0.3,0-0.6-0.1-0.9-0.1c-0.9,0-1.7,0.2-2.3,0.5
		c-0.6,0.3-1.1,0.7-1.5,1.2c-0.4,0.5-0.7,1.1-0.8,1.8c-0.2,0.7-0.2,1.5-0.2,2.3v8.2h-5v-18.2H126.7z"/>
	<path fill="#0E84B6" d="M140.6,383.4v9.1h0.1c0.6-0.9,1.4-1.6,2.5-2.1c1-0.4,2.1-0.7,3.2-0.7c0.9,0,1.8,0.2,2.7,0.6
		c0.9,0.4,1.7,0.9,2.4,1.7c0.7,0.8,1.3,1.8,1.7,3c0.4,1.2,0.7,2.6,0.7,4.3c0,1.7-0.2,3.1-0.7,4.3c-0.4,1.2-1,2.2-1.7,3
		c-0.7,0.8-1.5,1.3-2.4,1.7c-0.9,0.4-1.8,0.6-2.7,0.6c-1.3,0-2.5-0.2-3.6-0.6c-1.1-0.4-1.8-1.1-2.4-2.1h-0.1v2.3h-4.7v-25.1H140.6z
		 M148.7,397.2c-0.2-0.7-0.4-1.3-0.8-1.9c-0.4-0.5-0.8-1-1.3-1.3c-0.5-0.3-1.2-0.5-1.9-0.5c-0.7,0-1.4,0.2-1.9,0.5
		c-0.5,0.3-1,0.7-1.3,1.3c-0.4,0.5-0.6,1.2-0.8,1.9c-0.2,0.7-0.2,1.4-0.2,2.2c0,0.8,0.1,1.5,0.2,2.2c0.2,0.7,0.4,1.3,0.8,1.9
		c0.4,0.5,0.8,1,1.3,1.3c0.5,0.3,1.2,0.5,1.9,0.5c0.7,0,1.4-0.2,1.9-0.5c0.5-0.3,1-0.7,1.3-1.3c0.4-0.5,0.6-1.2,0.8-1.9
		c0.2-0.7,0.2-1.4,0.2-2.2C149,398.6,148.9,397.9,148.7,397.2z"/>
</g>
<circle fill="#FFFFFF" stroke="#8DC043" stroke-linejoin="round" stroke-miterlimit="10" cx="1031.9" cy="520.9" r="76.9"/>
<g enable-background="new    ">
	<path fill="#8DC043" d="M981,514.3c0.4-1.2,1.1-2.2,1.9-3c0.8-0.8,1.8-1.5,2.9-1.9c1.1-0.5,2.4-0.7,3.9-0.7c1.4,0,2.7,0.2,3.9,0.7
		c1.2,0.5,2.1,1.1,3,1.9c0.8,0.8,1.5,1.8,1.9,3c0.4,1.2,0.7,2.5,0.7,4c0,1.5-0.2,2.8-0.7,3.9c-0.4,1.2-1.1,2.2-1.9,3
		c-0.8,0.8-1.8,1.5-3,1.9c-1.2,0.4-2.5,0.7-3.9,0.7c-1.4,0-2.7-0.2-3.9-0.7c-1.1-0.4-2.1-1.1-2.9-1.9c-0.8-0.8-1.5-1.8-1.9-3
		c-0.4-1.2-0.7-2.5-0.7-3.9C980.3,516.8,980.6,515.5,981,514.3z M985.5,520.4c0.1,0.7,0.4,1.3,0.7,1.9c0.3,0.5,0.8,1,1.4,1.3
		c0.6,0.3,1.3,0.5,2.1,0.5s1.6-0.2,2.1-0.5c0.6-0.3,1-0.8,1.4-1.3c0.3-0.5,0.6-1.2,0.7-1.9s0.2-1.4,0.2-2.1c0-0.7-0.1-1.4-0.2-2.1
		s-0.4-1.3-0.7-1.9c-0.3-0.5-0.8-1-1.4-1.3c-0.6-0.3-1.3-0.5-2.1-0.5s-1.5,0.2-2.1,0.5c-0.6,0.3-1,0.8-1.4,1.3
		c-0.3,0.5-0.6,1.2-0.7,1.9c-0.1,0.7-0.2,1.4-0.2,2.1C985.3,519,985.4,519.7,985.5,520.4z"/>
	<path fill="#8DC043" d="M1007.3,502.2v9.1h0.1c0.6-0.9,1.4-1.6,2.5-2.1s2.1-0.7,3.2-0.7c0.9,0,1.8,0.2,2.7,0.6s1.7,0.9,2.4,1.7
		c0.7,0.8,1.3,1.8,1.7,3c0.4,1.2,0.7,2.6,0.7,4.3c0,1.7-0.2,3.1-0.7,4.3c-0.4,1.2-1,2.2-1.7,3c-0.7,0.8-1.5,1.3-2.4,1.7
		s-1.8,0.6-2.7,0.6c-1.3,0-2.5-0.2-3.6-0.6c-1.1-0.4-1.8-1.1-2.4-2.1h-0.1v2.3h-4.7v-25.1H1007.3z M1015.4,516
		c-0.2-0.7-0.4-1.3-0.8-1.9c-0.4-0.5-0.8-1-1.3-1.3c-0.5-0.3-1.2-0.5-1.9-0.5c-0.7,0-1.4,0.2-1.9,0.5c-0.5,0.3-1,0.7-1.3,1.3
		c-0.4,0.5-0.6,1.2-0.8,1.9c-0.2,0.7-0.2,1.4-0.2,2.2c0,0.8,0.1,1.5,0.2,2.2c0.2,0.7,0.4,1.3,0.8,1.9c0.4,0.5,0.8,1,1.3,1.3
		c0.5,0.3,1.2,0.5,1.9,0.5c0.7,0,1.4-0.2,1.9-0.5c0.5-0.3,1-0.7,1.3-1.3c0.4-0.5,0.6-1.2,0.8-1.9c0.2-0.7,0.2-1.4,0.2-2.2
		C1015.7,517.5,1015.6,516.8,1015.4,516z"/>
	<path fill="#8DC043" d="M1022.3,529.6c0.5,0,1-0.1,1.4-0.3c0.4-0.2,0.6-0.6,0.6-1.3v-18.8h5v19c0,0.9-0.1,1.7-0.3,2.4
		c-0.2,0.7-0.5,1.2-1,1.7c-0.5,0.5-1.1,0.8-1.9,1s-1.9,0.3-3.1,0.3c-0.6,0-1.1,0-1.6-0.1v-4.1
		C1021.5,529.5,1021.9,529.6,1022.3,529.6z M1024.3,506.4v-4.1h5v4.1H1024.3z"/>
	<path fill="#8DC043" d="M1038.9,523c0.7,0.7,1.8,1.1,3.2,1.1c1,0,1.9-0.3,2.6-0.8c0.7-0.5,1.2-1,1.3-1.6h4.4
		c-0.7,2.2-1.8,3.7-3.2,4.7c-1.5,0.9-3.2,1.4-5.3,1.4c-1.4,0-2.7-0.2-3.9-0.7c-1.1-0.5-2.1-1.1-2.9-1.9c-0.8-0.8-1.4-1.8-1.8-3
		c-0.4-1.2-0.6-2.5-0.6-3.9c0-1.4,0.2-2.6,0.7-3.8c0.4-1.2,1.1-2.2,1.9-3c0.8-0.9,1.8-1.5,2.9-2c1.1-0.5,2.4-0.7,3.8-0.7
		c1.5,0,2.9,0.3,4,0.9c1.1,0.6,2.1,1.4,2.8,2.4s1.3,2.2,1.6,3.4s0.4,2.6,0.4,4h-13.1C1037.8,521.1,1038.2,522.2,1038.9,523z
		 M1044.5,513.4c-0.6-0.7-1.5-1-2.7-1c-0.8,0-1.5,0.1-2,0.4c-0.5,0.3-0.9,0.6-1.3,1c-0.3,0.4-0.5,0.8-0.7,1.3
		c-0.1,0.4-0.2,0.8-0.2,1.2h8.1C1045.6,515,1045.1,514.1,1044.5,513.4z"/>
	<path fill="#8DC043" d="M1062.4,512.4c-0.8,0-1.5,0.2-2,0.5c-0.5,0.4-1,0.8-1.3,1.4c-0.3,0.6-0.6,1.2-0.7,1.9
		c-0.1,0.7-0.2,1.4-0.2,2.1c0,0.7,0.1,1.3,0.2,2c0.1,0.7,0.4,1.3,0.7,1.8c0.3,0.5,0.7,1,1.3,1.4c0.5,0.4,1.2,0.5,2,0.5
		c1.2,0,2.1-0.3,2.8-1c0.6-0.7,1-1.6,1.2-2.7h4.8c-0.3,2.4-1.3,4.2-2.8,5.5c-1.5,1.3-3.5,1.9-5.9,1.9c-1.4,0-2.6-0.2-3.7-0.7
		c-1.1-0.5-2.1-1.1-2.9-1.9c-0.8-0.8-1.4-1.8-1.9-2.9c-0.4-1.1-0.7-2.4-0.7-3.7c0-1.4,0.2-2.7,0.6-3.9c0.4-1.2,1-2.2,1.8-3.1
		c0.8-0.9,1.8-1.6,2.9-2.1c1.1-0.5,2.5-0.7,3.9-0.7c1.1,0,2.1,0.1,3.1,0.4s1.9,0.7,2.7,1.3c0.8,0.6,1.4,1.3,1.9,2.1s0.8,1.9,0.8,3
		h-4.9C1065.8,513.5,1064.5,512.4,1062.4,512.4z"/>
	<path fill="#8DC043" d="M1083.9,509.2v3.3h-3.7v9c0,0.8,0.1,1.4,0.4,1.7c0.3,0.3,0.8,0.4,1.7,0.4c0.3,0,0.5,0,0.8,0
		c0.3,0,0.5-0.1,0.7-0.1v3.9c-0.4,0.1-0.9,0.1-1.4,0.1c-0.5,0-1,0-1.5,0c-0.8,0-1.5-0.1-2.2-0.2s-1.3-0.3-1.8-0.6
		c-0.5-0.3-0.9-0.7-1.2-1.3c-0.3-0.6-0.5-1.3-0.5-2.2v-10.7h-3v-3.3h3v-5.4h5v5.4H1083.9z"/>
</g>
</svg>
